<svg width="129" height="96" viewBox="0 0 129 96" fill="none" xmlns="http://www.w3.org/2000/svg">
<circle cx="102" cy="49.5" r="27" fill="#D7FF48"/>
<path d="M4.032 76.5V24.66H14.464C17.92 24.66 20.7787 25.1293 23.04 26.068C25.3013 26.964 26.9653 28.436 28.032 30.484C29.1413 32.4893 29.696 35.1347 29.696 38.42C29.696 40.4253 29.4827 42.26 29.056 43.924C28.6293 45.5453 27.9467 46.932 27.008 48.084C26.0693 49.1933 24.832 50.004 23.296 50.516L30.656 76.5H23.68L16.896 52.18H11.264V76.5H4.032ZM11.264 46.996H14.016C16.064 46.996 17.728 46.74 19.008 46.228C20.288 45.716 21.2267 44.8413 21.824 43.604C22.4213 42.3667 22.72 40.6387 22.72 38.42C22.72 35.3907 22.1653 33.2147 21.056 31.892C19.9467 30.5267 17.7493 29.844 14.464 29.844H11.264V46.996ZM37.2195 76.5V24.66H57.3155V30.036H44.4515V47.188H54.8835V52.308H44.4515V71.316H57.4435V76.5H37.2195ZM76.274 77.076C72.6047 77.076 69.746 76.308 67.698 74.772C65.6927 73.236 64.2847 71.1667 63.474 68.564C62.706 65.9613 62.322 63.06 62.322 59.86V41.556C62.322 38.0573 62.706 35.0067 63.474 32.404C64.2847 29.8013 65.6927 27.796 67.698 26.388C69.746 24.9373 72.6047 24.212 76.274 24.212C79.5167 24.212 82.0767 24.8093 83.954 26.004C85.874 27.1987 87.2393 28.9053 88.05 31.124C88.9033 33.3427 89.33 36.0093 89.33 39.124V43.22H82.482V39.572C82.482 37.652 82.3753 35.9667 82.162 34.516C81.9913 33.0227 81.4793 31.8707 80.626 31.06C79.7727 30.2493 78.3433 29.844 76.338 29.844C74.29 29.844 72.7967 30.292 71.858 31.188C70.9193 32.0413 70.3007 33.2787 70.002 34.9C69.746 36.4787 69.618 38.3347 69.618 40.468V61.012C69.618 63.6147 69.8313 65.684 70.258 67.22C70.6847 68.7133 71.3887 69.78 72.37 70.42C73.3513 71.06 74.674 71.38 76.338 71.38C78.3007 71.38 79.7087 70.9533 80.562 70.1C81.4153 69.204 81.9487 67.988 82.162 66.452C82.3753 64.916 82.482 63.124 82.482 61.076V57.236H89.33V61.076C89.33 64.2333 88.946 67.028 88.178 69.46C87.41 71.8493 86.0873 73.7267 84.21 75.092C82.3327 76.4147 79.6873 77.076 76.274 77.076Z" fill="white"/>
</svg>
