<svg width="580" height="418" viewBox="0 0 580 418" fill="none" xmlns="http://www.w3.org/2000/svg">
<path d="M22.776 384.832C22.824 384.656 22.856 384.392 22.872 384.04C22.904 383.688 22.944 383.36 22.992 383.056L22.968 382.984C22.76 383.272 22.512 383.552 22.224 383.824C21.936 384.096 21.616 384.344 21.264 384.568C20.928 384.776 20.56 384.944 20.16 385.072C19.776 385.2 19.368 385.264 18.936 385.264C18.44 385.264 18 385.176 17.616 385C17.232 384.824 16.912 384.592 16.656 384.304C16.4 384.016 16.208 383.68 16.08 383.296C15.952 382.912 15.888 382.512 15.888 382.096C15.888 381.504 16.024 380.992 16.296 380.56C16.568 380.112 16.928 379.744 17.376 379.456C17.792 379.2 18.28 378.992 18.84 378.832C19.416 378.672 19.968 378.56 20.496 378.496C21.04 378.416 21.528 378.368 21.96 378.352C22.392 378.32 22.68 378.304 22.824 378.304H23.16C23.144 377.712 23.112 377.248 23.064 376.912C23.016 376.56 22.952 376.272 22.872 376.048C22.696 375.568 22.392 375.224 21.96 375.016C21.528 374.792 21.008 374.68 20.4 374.68C20.144 374.68 19.864 374.704 19.56 374.752C19.272 374.8 18.992 374.888 18.72 375.016C18.464 375.144 18.24 375.328 18.048 375.568C17.856 375.792 17.744 376.088 17.712 376.456L17.616 376.528H17.088L16.872 374.752L16.944 374.608C17.024 374.512 17.192 374.408 17.448 374.296C17.704 374.184 18 374.08 18.336 373.984C18.688 373.872 19.072 373.784 19.488 373.72C19.92 373.64 20.344 373.6 20.76 373.6C21.336 373.6 21.872 373.68 22.368 373.84C22.864 373.984 23.288 374.208 23.64 374.512C24.008 374.816 24.296 375.2 24.504 375.664C24.712 376.112 24.816 376.64 24.816 377.248C24.816 377.92 24.808 378.52 24.792 379.048C24.792 379.56 24.784 380.04 24.768 380.488C24.752 380.92 24.736 381.352 24.72 381.784C24.72 382.2 24.72 382.648 24.72 383.128C24.752 383.496 24.792 383.768 24.84 383.944C24.888 384.104 24.968 384.224 25.08 384.304C25.208 384.432 25.392 384.512 25.632 384.544C25.888 384.56 26.144 384.568 26.4 384.568L26.496 384.664L26.52 385L26.496 385.096C26.208 385.064 25.896 385.04 25.56 385.024C25.224 385.008 24.896 385 24.576 385C23.968 385 23.416 385.024 22.92 385.072L22.776 384.832ZM22.776 382.24C22.824 382.16 22.872 382.064 22.92 381.952C22.984 381.84 23.024 381.704 23.04 381.544L23.16 379.144H22.944C22.304 379.144 21.664 379.184 21.024 379.264C20.384 379.328 19.808 379.464 19.296 379.672C18.8 379.88 18.392 380.168 18.072 380.536C17.752 380.904 17.592 381.376 17.592 381.952C17.592 382.56 17.768 383.048 18.12 383.416C18.472 383.768 18.928 383.944 19.488 383.944C19.824 383.944 20.16 383.888 20.496 383.776C20.832 383.664 21.144 383.52 21.432 383.344C21.736 383.168 22 382.984 22.224 382.792C22.464 382.6 22.648 382.416 22.776 382.24ZM39.7759 375.088H36.6559C36.6559 376.128 36.6479 377.088 36.6319 377.968C36.6319 378.848 36.6319 379.624 36.6319 380.296C36.6319 380.952 36.6239 381.48 36.6079 381.88C36.6079 382.28 36.6079 382.528 36.6079 382.624C36.6079 383.248 36.7279 383.664 36.9679 383.872C37.2079 384.08 37.4879 384.184 37.8079 384.184C38.0799 384.184 38.3919 384.136 38.7439 384.04C39.1119 383.928 39.4079 383.808 39.6319 383.68L39.8479 383.848L39.6319 384.52C39.2639 384.776 38.8479 384.96 38.3839 385.072C37.9359 385.2 37.5359 385.264 37.1839 385.264C36.3679 385.264 35.7919 385.04 35.4559 384.592C35.1199 384.144 34.9519 383.568 34.9519 382.864C34.9519 382.72 34.9599 382.424 34.9759 381.976C34.9919 381.528 35.0079 380.968 35.0239 380.296C35.0399 379.624 35.0559 378.848 35.0719 377.968C35.0879 377.088 35.0959 376.128 35.0959 375.088H33.3679L33.2719 374.968V374.512L33.3679 374.416L35.0959 374.08C35.0959 373.52 35.0799 372.952 35.0479 372.376C35.0319 371.784 35.0079 371.208 34.9759 370.648L35.1439 370.504L35.4799 370.48C35.6079 370.464 35.8159 370.432 36.1039 370.384C36.3919 370.336 36.5919 370.28 36.7039 370.216L36.9199 370.312C36.8719 370.536 36.8319 370.8 36.7999 371.104C36.7679 371.392 36.7359 371.704 36.7039 372.04C36.6879 372.376 36.6719 372.72 36.6559 373.072C36.6559 373.424 36.6559 373.76 36.6559 374.08L39.7759 373.936L39.8959 374.032V374.968L39.7759 375.088ZM52.02 378.544L51.636 378.712C50.772 378.712 49.884 378.72 48.972 378.736C48.06 378.752 47.164 378.76 46.284 378.76H43.452C43.436 378.872 43.428 378.984 43.428 379.096C43.428 379.192 43.428 379.288 43.428 379.384C43.428 379.992 43.516 380.576 43.692 381.136C43.868 381.68 44.14 382.16 44.508 382.576C44.892 382.992 45.38 383.328 45.972 383.584C46.564 383.824 47.284 383.944 48.132 383.944C48.628 383.944 49.156 383.896 49.716 383.8C50.292 383.688 50.82 383.496 51.3 383.224L51.54 383.368V383.8L51.3 384.064C50.916 384.368 50.372 384.648 49.668 384.904C48.964 385.144 48.18 385.264 47.316 385.264C46.468 385.264 45.692 385.128 44.988 384.856C44.3 384.568 43.7 384.168 43.188 383.656C42.692 383.144 42.3 382.536 42.012 381.832C41.74 381.128 41.604 380.344 41.604 379.48C41.604 378.6 41.748 377.8 42.036 377.08C42.324 376.36 42.716 375.744 43.212 375.232C43.724 374.72 44.316 374.32 44.988 374.032C45.676 373.744 46.412 373.6 47.196 373.6C47.612 373.6 48.076 373.656 48.588 373.768C49.116 373.88 49.62 374.096 50.1 374.416C50.58 374.72 51.012 375.16 51.396 375.736C51.78 376.296 52.044 377.04 52.188 377.968L52.02 378.544ZM47.22 374.68C46.708 374.68 46.244 374.768 45.828 374.944C45.428 375.104 45.068 375.328 44.748 375.616C44.444 375.888 44.188 376.216 43.98 376.6C43.788 376.968 43.652 377.36 43.572 377.776H44.508C45.372 377.776 46.212 377.768 47.028 377.752C47.844 377.72 48.7 377.68 49.596 377.632C49.804 377.616 49.94 377.56 50.004 377.464C50.084 377.368 50.124 377.256 50.124 377.128C50.124 377.032 50.116 376.944 50.1 376.864C50.084 376.784 50.06 376.704 50.028 376.624C49.852 376.016 49.524 375.544 49.044 375.208C48.564 374.856 47.956 374.68 47.22 374.68ZM63.3574 376.528L63.2614 376.456C63.2614 376.088 63.1494 375.792 62.9254 375.568C62.7174 375.328 62.4614 375.144 62.1574 375.016C61.8534 374.888 61.5254 374.8 61.1734 374.752C60.8374 374.704 60.5414 374.68 60.2854 374.68C59.5494 374.68 58.9094 374.816 58.3654 375.088C57.8374 375.344 57.3974 375.696 57.0454 376.144C56.6934 376.576 56.4294 377.08 56.2534 377.656C56.0934 378.216 56.0134 378.792 56.0134 379.384C56.0134 379.992 56.1014 380.576 56.2774 381.136C56.4694 381.696 56.7574 382.192 57.1414 382.624C57.5254 383.056 58.0054 383.4 58.5814 383.656C59.1574 383.912 59.8454 384.04 60.6454 384.04C61.1894 384.04 61.7894 383.96 62.4454 383.8C63.1174 383.624 63.6934 383.408 64.1734 383.152L64.4134 383.392L64.0534 384.064C63.8774 384.192 63.6454 384.328 63.3574 384.472C63.0854 384.6 62.7734 384.728 62.4214 384.856C62.0694 384.968 61.6854 385.064 61.2694 385.144C60.8694 385.224 60.4694 385.264 60.0694 385.264C59.2854 385.264 58.5334 385.128 57.8134 384.856C57.1094 384.568 56.4854 384.176 55.9414 383.68C55.4134 383.168 54.9894 382.56 54.6694 381.856C54.3494 381.136 54.1894 380.344 54.1894 379.48C54.1894 378.6 54.3494 377.8 54.6694 377.08C54.9894 376.36 55.4294 375.744 55.9894 375.232C56.5494 374.72 57.1974 374.32 57.9334 374.032C58.6854 373.744 59.4854 373.6 60.3334 373.6C61.1014 373.6 61.8214 373.696 62.4934 373.888C63.1814 374.08 63.7014 374.272 64.0534 374.464L64.1254 374.68L63.8614 376.528H63.3574ZM75.5203 384.832C75.5843 384.624 75.6323 384.352 75.6643 384.016C75.6963 383.68 75.7203 383.384 75.7363 383.128C75.7683 382.456 75.7923 381.8 75.8083 381.16C75.8243 380.504 75.8323 379.96 75.8323 379.528C75.8323 379.16 75.8163 378.76 75.7843 378.328C75.7683 377.896 75.7203 377.52 75.6403 377.2C75.4803 376.448 75.1523 375.888 74.6563 375.52C74.1603 375.152 73.5843 374.968 72.9283 374.968C72.4003 374.968 71.9043 375.088 71.4403 375.328C70.9923 375.552 70.6083 375.832 70.2883 376.168C69.9683 376.488 69.7123 376.832 69.5203 377.2C69.3443 377.552 69.2563 377.848 69.2563 378.088C69.2563 378.952 69.2563 379.648 69.2563 380.176C69.2563 380.688 69.2563 381.12 69.2563 381.472C69.2723 381.824 69.2803 382.12 69.2803 382.36C69.2963 382.584 69.3203 382.84 69.3523 383.128C69.3843 383.464 69.4163 383.72 69.4483 383.896C69.4963 384.056 69.5843 384.192 69.7123 384.304C69.8403 384.416 70.0163 384.488 70.2403 384.52C70.4803 384.552 70.7203 384.568 70.9603 384.568L71.0803 384.688L71.1283 385L71.0803 385.096C70.9683 385.096 70.8003 385.088 70.5763 385.072C70.3523 385.056 70.1123 385.04 69.8563 385.024C69.6003 385.024 69.3603 385.016 69.1363 385C68.9123 385 68.7443 385 68.6323 385H68.2963C68.1843 385 68.0083 385 67.7683 385C67.5443 385.016 67.3043 385.024 67.0483 385.024C66.8083 385.04 66.5683 385.056 66.3283 385.072C66.1043 385.088 65.9363 385.096 65.8243 385.096L65.8003 385L65.8243 384.664L65.9203 384.568C66.1763 384.568 66.4243 384.56 66.6643 384.544C66.9203 384.512 67.1123 384.432 67.2403 384.304C67.3683 384.192 67.4483 384.048 67.4803 383.872C67.5283 383.696 67.5683 383.448 67.6003 383.128C67.6163 382.92 67.6243 382.712 67.6243 382.504C67.6403 382.296 67.6483 382.056 67.6483 381.784C67.6643 381.496 67.6723 381.168 67.6723 380.8C67.6723 380.416 67.6723 379.944 67.6723 379.384V373.624C67.6723 372.968 67.6723 372.416 67.6723 371.968C67.6723 371.504 67.6643 371.104 67.6483 370.768C67.6483 370.432 67.6403 370.136 67.6243 369.88C67.6243 369.624 67.6163 369.368 67.6003 369.112C67.5843 368.936 67.5363 368.784 67.4563 368.656C67.3923 368.528 67.3363 368.432 67.2883 368.368C67.1283 368.192 66.9283 368.08 66.6883 368.032C66.4483 367.984 66.2003 367.96 65.9443 367.96L65.8483 367.864V367.552L65.9443 367.456H66.3763C66.6483 367.456 66.9923 367.456 67.4083 367.456C67.8243 367.44 68.1843 367.408 68.4883 367.36L69.3283 367.24L69.4723 367.456C69.4403 367.52 69.4163 367.64 69.4003 367.816C69.3843 367.976 69.3683 368.152 69.3523 368.344C69.3363 368.536 69.3283 368.72 69.3283 368.896C69.3283 369.072 69.3283 369.208 69.3283 369.304C69.3283 369.816 69.3123 370.432 69.2803 371.152C69.2643 371.856 69.2563 372.664 69.2563 373.576C69.2563 374.248 69.2483 374.776 69.2323 375.16C69.2323 375.544 69.2163 375.848 69.1843 376.072L69.2563 376.12C69.6563 375.416 70.1923 374.824 70.8643 374.344C71.5363 373.848 72.3683 373.6 73.3603 373.6C73.8083 373.6 74.2563 373.664 74.7043 373.792C75.1683 373.92 75.5843 374.12 75.9523 374.392C76.3203 374.664 76.6323 375.008 76.8883 375.424C77.1443 375.84 77.3043 376.336 77.3683 376.912C77.4163 377.328 77.4403 377.808 77.4403 378.352C77.4563 378.88 77.4643 379.312 77.4643 379.648V383.032C77.4643 383.4 77.4963 383.688 77.5603 383.896C77.6403 384.088 77.7283 384.224 77.8243 384.304C77.9683 384.432 78.1603 384.512 78.4003 384.544C78.6563 384.56 78.9123 384.568 79.1683 384.568L79.2403 384.664L79.2883 385L79.2403 385.096C78.9683 385.064 78.6643 385.04 78.3283 385.024C77.9923 385.008 77.6643 385 77.3443 385C76.7363 385 76.1843 385.024 75.6883 385.072L75.5203 384.832ZM83.9126 376.024C84.3286 375.336 84.8646 374.76 85.5206 374.296C86.1766 373.832 86.9926 373.6 87.9686 373.6C88.4166 373.6 88.8646 373.664 89.3126 373.792C89.7606 373.92 90.1686 374.12 90.5366 374.392C90.9206 374.664 91.2326 375.016 91.4726 375.448C91.7286 375.864 91.8966 376.36 91.9766 376.936C92.0246 377.352 92.0486 377.792 92.0486 378.256C92.0646 378.72 92.0726 379.184 92.0726 379.648C92.0726 380.224 92.0726 380.808 92.0726 381.4C92.0886 381.976 92.0966 382.552 92.0966 383.128C92.1286 383.496 92.1686 383.768 92.2166 383.944C92.2646 384.104 92.3366 384.224 92.4326 384.304C92.5766 384.432 92.7686 384.512 93.0086 384.544C93.2646 384.56 93.5206 384.568 93.7766 384.568L93.8486 384.664L93.8966 385L93.8486 385.096C93.5766 385.064 93.2726 385.04 92.9366 385.024C92.6006 385.008 92.2726 385 91.9526 385C91.3446 385 90.7926 385.024 90.2966 385.072L90.1286 384.832C90.1926 384.624 90.2406 384.352 90.2726 384.016C90.3046 383.68 90.3286 383.384 90.3446 383.128C90.3766 382.456 90.4006 381.8 90.4166 381.16C90.4326 380.504 90.4406 379.96 90.4406 379.528C90.4406 379.16 90.4246 378.76 90.3926 378.328C90.3766 377.896 90.3286 377.52 90.2486 377.2C90.0886 376.448 89.7606 375.888 89.2646 375.52C88.7686 375.152 88.1926 374.968 87.5366 374.968C87.0086 374.968 86.5126 375.08 86.0486 375.304C85.6006 375.528 85.2166 375.808 84.8966 376.144C84.5766 376.464 84.3206 376.808 84.1286 377.176C83.9526 377.528 83.8646 377.832 83.8646 378.088V380.8C83.8646 381.152 83.8646 381.44 83.8646 381.664C83.8646 381.888 83.8646 382.08 83.8646 382.24C83.8806 382.4 83.8966 382.552 83.9126 382.696C83.9286 382.824 83.9446 382.968 83.9606 383.128C83.9926 383.464 84.0246 383.72 84.0566 383.896C84.1046 384.056 84.1926 384.192 84.3206 384.304C84.4486 384.416 84.6246 384.488 84.8486 384.52C85.0886 384.552 85.3286 384.568 85.5686 384.568L85.6886 384.688L85.7366 385L85.6886 385.096C85.5766 385.096 85.4086 385.088 85.1846 385.072C84.9606 385.056 84.7206 385.04 84.4646 385.024C84.2086 385.024 83.9686 385.016 83.7446 385C83.5206 385 83.3526 385 83.2406 385H82.9046C82.7926 385 82.6166 385 82.3766 385C82.1526 385.016 81.9126 385.024 81.6566 385.024C81.4166 385.04 81.1766 385.056 80.9366 385.072C80.7126 385.088 80.5446 385.096 80.4326 385.096L80.4086 385L80.4326 384.664L80.5286 384.568C80.7846 384.568 81.0326 384.56 81.2726 384.544C81.5286 384.512 81.7206 384.432 81.8486 384.304C81.9766 384.192 82.0566 384.048 82.0886 383.872C82.1366 383.696 82.1766 383.448 82.2086 383.128C82.2246 382.872 82.2406 382.616 82.2566 382.36C82.2726 382.088 82.2806 381.664 82.2806 381.088V378.136C82.2806 377.8 82.2806 377.52 82.2806 377.296C82.2806 377.056 82.2726 376.848 82.2566 376.672C82.2566 376.496 82.2486 376.336 82.2326 376.192C82.2326 376.048 82.2246 375.896 82.2086 375.736C82.1766 375.56 82.1286 375.408 82.0646 375.28C82.0006 375.136 81.9446 375.04 81.8966 374.992C81.7366 374.8 81.5366 374.688 81.2966 374.656C81.0566 374.608 80.8086 374.584 80.5526 374.584L80.4566 374.488V374.152L80.5526 374.08H80.9846C81.2566 374.08 81.6006 374.08 82.0166 374.08C82.4326 374.064 82.7926 374.032 83.0966 373.984L83.9366 373.864L84.0806 374.08C84.0006 374.288 83.9446 374.576 83.9126 374.944C83.8806 375.296 83.8566 375.64 83.8406 375.976L83.9126 376.024ZM101.25 373.6C102.194 373.6 103.034 373.768 103.77 374.104C104.506 374.424 105.122 374.864 105.618 375.424C106.13 375.968 106.514 376.6 106.77 377.32C107.042 378.04 107.178 378.784 107.178 379.552C107.178 380.288 107.058 381 106.818 381.688C106.578 382.376 106.21 382.984 105.714 383.512C105.218 384.04 104.602 384.464 103.866 384.784C103.13 385.104 102.274 385.264 101.298 385.264C100.29 385.264 99.4096 385.096 98.6576 384.76C97.9056 384.424 97.2816 383.984 96.7856 383.44C96.3056 382.896 95.9456 382.28 95.7056 381.592C95.4656 380.888 95.3456 380.168 95.3456 379.432C95.3456 378.648 95.4816 377.904 95.7536 377.2C96.0256 376.496 96.4096 375.88 96.9056 375.352C97.4176 374.808 98.0336 374.384 98.7536 374.08C99.4896 373.76 100.322 373.6 101.25 373.6ZM101.274 384.328C101.946 384.328 102.538 384.192 103.05 383.92C103.562 383.648 103.986 383.288 104.322 382.84C104.658 382.392 104.906 381.888 105.066 381.328C105.242 380.752 105.33 380.16 105.33 379.552C105.33 378.976 105.234 378.392 105.042 377.8C104.866 377.208 104.602 376.68 104.25 376.216C103.898 375.736 103.466 375.352 102.954 375.064C102.442 374.76 101.85 374.608 101.178 374.608C100.474 374.608 99.8656 374.752 99.3536 375.04C98.8576 375.312 98.4416 375.672 98.1056 376.12C97.7856 376.568 97.5456 377.08 97.3856 377.656C97.2256 378.232 97.1456 378.808 97.1456 379.384C97.1456 379.976 97.2336 380.568 97.4096 381.16C97.6016 381.736 97.8736 382.264 98.2256 382.744C98.5776 383.208 99.0096 383.592 99.5216 383.896C100.034 384.184 100.618 384.328 101.274 384.328ZM124.271 376.528L124.175 376.456C124.175 376.088 124.063 375.792 123.839 375.568C123.631 375.328 123.375 375.144 123.071 375.016C122.767 374.888 122.439 374.8 122.087 374.752C121.751 374.704 121.455 374.68 121.199 374.68C120.463 374.68 119.823 374.816 119.279 375.088C118.751 375.344 118.311 375.696 117.959 376.144C117.607 376.576 117.343 377.08 117.167 377.656C117.007 378.216 116.927 378.792 116.927 379.384C116.927 379.992 117.015 380.576 117.191 381.136C117.383 381.696 117.671 382.192 118.055 382.624C118.439 383.056 118.919 383.4 119.495 383.656C120.071 383.912 120.759 384.04 121.559 384.04C122.103 384.04 122.703 383.96 123.359 383.8C124.031 383.624 124.607 383.408 125.087 383.152L125.327 383.392L124.967 384.064C124.791 384.192 124.559 384.328 124.271 384.472C123.999 384.6 123.687 384.728 123.335 384.856C122.983 384.968 122.599 385.064 122.183 385.144C121.783 385.224 121.383 385.264 120.983 385.264C120.199 385.264 119.447 385.128 118.727 384.856C118.023 384.568 117.399 384.176 116.855 383.68C116.327 383.168 115.903 382.56 115.583 381.856C115.263 381.136 115.103 380.344 115.103 379.48C115.103 378.6 115.263 377.8 115.583 377.08C115.903 376.36 116.343 375.744 116.903 375.232C117.463 374.72 118.111 374.32 118.847 374.032C119.599 373.744 120.399 373.6 121.247 373.6C122.015 373.6 122.735 373.696 123.407 373.888C124.095 374.08 124.615 374.272 124.967 374.464L125.039 374.68L124.775 376.528H124.271ZM126.858 367.552L126.954 367.456H127.386C127.658 367.456 128.002 367.456 128.418 367.456C128.834 367.44 129.194 367.408 129.498 367.36L130.362 367.24L130.506 367.456C130.474 367.52 130.45 367.64 130.434 367.816C130.418 367.976 130.402 368.152 130.386 368.344C130.37 368.536 130.354 368.72 130.338 368.896C130.338 369.072 130.338 369.208 130.338 369.304C130.322 369.56 130.306 369.8 130.29 370.024C130.29 370.248 130.282 370.512 130.266 370.816C130.266 371.12 130.266 371.488 130.266 371.92C130.266 372.352 130.266 372.904 130.266 373.576V378.808C130.266 379.48 130.266 380.032 130.266 380.464C130.282 380.896 130.29 381.264 130.29 381.568C130.306 381.872 130.314 382.136 130.314 382.36C130.33 382.584 130.346 382.84 130.362 383.128C130.394 383.464 130.426 383.72 130.458 383.896C130.506 384.056 130.594 384.192 130.722 384.304C130.85 384.416 131.026 384.488 131.25 384.52C131.49 384.552 131.73 384.568 131.97 384.568L132.09 384.688L132.138 385L132.09 385.096C131.978 385.096 131.81 385.088 131.586 385.072C131.362 385.056 131.122 385.04 130.866 385.024C130.61 385.024 130.37 385.016 130.146 385C129.922 385 129.754 385 129.642 385H129.306C129.194 385 129.018 385 128.778 385C128.554 385.016 128.314 385.024 128.058 385.024C127.818 385.04 127.578 385.056 127.338 385.072C127.114 385.088 126.946 385.096 126.834 385.096L126.81 385L126.834 384.664L126.93 384.568C127.186 384.568 127.434 384.56 127.674 384.544C127.93 384.512 128.122 384.432 128.25 384.304C128.378 384.192 128.458 384.048 128.49 383.872C128.538 383.696 128.578 383.448 128.61 383.128C128.626 382.92 128.634 382.712 128.634 382.504C128.65 382.296 128.658 382.056 128.658 381.784C128.674 381.496 128.682 381.168 128.682 380.8C128.682 380.416 128.682 379.944 128.682 379.384V373.624C128.682 372.968 128.682 372.416 128.682 371.968C128.682 371.504 128.674 371.104 128.658 370.768C128.658 370.432 128.65 370.136 128.634 369.88C128.634 369.624 128.626 369.368 128.61 369.112C128.594 368.936 128.546 368.784 128.466 368.656C128.402 368.528 128.346 368.432 128.298 368.368C128.138 368.192 127.938 368.08 127.698 368.032C127.458 367.984 127.21 367.96 126.954 367.96L126.858 367.864V367.552ZM142.999 382.936C142.583 383.608 142.047 384.168 141.391 384.616C140.751 385.048 139.959 385.264 139.015 385.264C138.551 385.264 138.103 385.208 137.671 385.096C137.255 385 136.863 384.832 136.495 384.592C136.143 384.352 135.839 384.032 135.583 383.632C135.327 383.232 135.143 382.728 135.031 382.12C134.951 381.704 134.911 381.272 134.911 380.824C134.927 380.36 134.927 379.896 134.911 379.432C134.911 379.224 134.903 378.944 134.887 378.592C134.887 378.224 134.887 377.856 134.887 377.488C134.887 377.104 134.887 376.752 134.887 376.432C134.887 376.112 134.887 375.88 134.887 375.736C134.887 375.56 134.847 375.408 134.767 375.28C134.687 375.136 134.623 375.032 134.575 374.968C134.415 374.792 134.215 374.688 133.975 374.656C133.735 374.608 133.487 374.584 133.231 374.584L133.159 374.488V374.152L133.231 374.08H133.663C133.935 374.08 134.279 374.08 134.695 374.08C135.111 374.064 135.471 374.032 135.775 373.984L136.615 373.864L136.759 374.08C136.727 374.144 136.703 374.264 136.687 374.44C136.671 374.6 136.655 374.776 136.639 374.968C136.623 375.16 136.615 375.344 136.615 375.52C136.615 375.696 136.615 375.832 136.615 375.928C136.615 376.2 136.607 376.504 136.591 376.84C136.591 377.16 136.583 377.488 136.567 377.824C136.567 378.16 136.559 378.48 136.543 378.784C136.543 379.088 136.543 379.344 136.543 379.552C136.543 379.904 136.551 380.304 136.567 380.752C136.599 381.184 136.655 381.56 136.735 381.88C136.895 382.632 137.223 383.192 137.719 383.56C138.215 383.928 138.791 384.112 139.447 384.112C139.943 384.112 140.399 384.016 140.815 383.824C141.231 383.616 141.591 383.368 141.895 383.08C142.215 382.792 142.471 382.488 142.663 382.168C142.871 381.832 143.007 381.528 143.071 381.256V378.136C143.071 377.8 143.063 377.52 143.047 377.296C143.047 377.056 143.039 376.848 143.023 376.672C143.023 376.496 143.015 376.336 142.999 376.192C142.999 376.048 142.991 375.896 142.975 375.736C142.943 375.56 142.895 375.408 142.831 375.28C142.783 375.136 142.735 375.04 142.687 374.992C142.527 374.8 142.327 374.688 142.087 374.656C141.847 374.608 141.599 374.584 141.343 374.584L141.247 374.488V374.152L141.343 374.08H141.775C142.047 374.08 142.391 374.08 142.807 374.08C143.223 374.064 143.575 374.032 143.863 373.984L144.703 373.864L144.847 374.08C144.815 374.144 144.791 374.264 144.775 374.44C144.759 374.6 144.743 374.776 144.727 374.968C144.711 375.16 144.703 375.344 144.703 375.52C144.703 375.696 144.703 375.832 144.703 375.928C144.703 376.056 144.695 376.176 144.679 376.288C144.679 376.4 144.679 376.536 144.679 376.696C144.679 376.856 144.671 377.048 144.655 377.272C144.655 377.48 144.655 377.76 144.655 378.112V380.8C144.655 381.152 144.655 381.44 144.655 381.664C144.671 381.888 144.679 382.08 144.679 382.24C144.695 382.4 144.703 382.552 144.703 382.696C144.719 382.824 144.727 382.968 144.727 383.128C144.759 383.496 144.799 383.768 144.847 383.944C144.895 384.104 144.975 384.224 145.087 384.304C145.215 384.432 145.399 384.512 145.639 384.544C145.895 384.56 146.151 384.568 146.407 384.568L146.503 384.664L146.551 385L146.503 385.096C146.215 385.064 145.903 385.04 145.567 385.024C145.231 385.008 144.903 385 144.583 385C143.975 385 143.423 385.024 142.927 385.072L142.783 384.832C142.831 384.624 142.879 384.352 142.927 384.016C142.991 383.68 143.039 383.336 143.071 382.984L142.999 382.936ZM151.054 383.08C151.054 383.4 151.086 383.728 151.15 384.064C151.23 384.4 151.302 384.656 151.366 384.832L151.198 385H150.094C149.982 385 149.806 385 149.566 385C149.342 385.016 149.102 385.024 148.846 385.024C148.606 385.04 148.366 385.056 148.126 385.072C147.902 385.088 147.734 385.096 147.622 385.096L147.598 385L147.622 384.664L147.718 384.568C147.974 384.568 148.222 384.56 148.462 384.544C148.718 384.512 148.91 384.432 149.038 384.304C149.166 384.192 149.246 384.048 149.278 383.872C149.326 383.696 149.366 383.448 149.398 383.128L149.422 382.912C149.422 382.768 149.422 382.608 149.422 382.432C149.438 382.24 149.446 382.016 149.446 381.76C149.462 381.488 149.47 381.168 149.47 380.8C149.47 380.416 149.47 379.944 149.47 379.384V373.624C149.47 372.968 149.47 372.416 149.47 371.968C149.47 371.504 149.462 371.104 149.446 370.768C149.446 370.432 149.438 370.144 149.422 369.904C149.422 369.648 149.414 369.384 149.398 369.112C149.382 368.936 149.334 368.784 149.254 368.656C149.19 368.528 149.134 368.432 149.086 368.368C148.926 368.192 148.726 368.08 148.486 368.032C148.246 367.984 147.998 367.96 147.742 367.96L147.646 367.864V367.552L147.742 367.456H148.174C148.446 367.456 148.79 367.456 149.206 367.456C149.622 367.44 149.982 367.408 150.286 367.36L151.126 367.24L151.27 367.456C151.238 367.52 151.206 367.64 151.174 367.816C151.158 367.976 151.142 368.152 151.126 368.344C151.11 368.536 151.094 368.72 151.078 368.896C151.078 369.072 151.078 369.208 151.078 369.304C151.078 369.56 151.078 369.8 151.078 370.024C151.078 370.248 151.07 370.512 151.054 370.816C151.054 371.12 151.054 371.488 151.054 371.92C151.054 372.352 151.054 372.904 151.054 373.576C151.054 374.264 151.046 374.768 151.03 375.088C151.014 375.392 150.998 375.64 150.982 375.832L151.054 375.88C151.518 375.208 152.086 374.664 152.758 374.248C153.43 373.816 154.19 373.6 155.038 373.6C155.95 373.6 156.734 373.76 157.39 374.08C158.062 374.4 158.614 374.824 159.046 375.352C159.478 375.88 159.798 376.488 160.006 377.176C160.214 377.848 160.318 378.552 160.318 379.288C160.318 380.376 160.15 381.304 159.814 382.072C159.478 382.824 159.046 383.44 158.518 383.92C158.006 384.384 157.438 384.728 156.814 384.952C156.206 385.16 155.622 385.264 155.062 385.264C154.294 385.264 153.566 385.096 152.878 384.76C152.206 384.424 151.622 383.848 151.126 383.032L151.054 383.08ZM158.494 379.336C158.494 378.792 158.422 378.256 158.278 377.728C158.134 377.2 157.91 376.736 157.606 376.336C157.318 375.92 156.95 375.592 156.502 375.352C156.054 375.096 155.526 374.968 154.918 374.968C154.294 374.968 153.742 375.088 153.262 375.328C152.782 375.568 152.374 375.856 152.038 376.192C151.718 376.528 151.47 376.88 151.294 377.248C151.134 377.6 151.054 377.904 151.054 378.16V380.776C151.102 381.032 151.214 381.344 151.39 381.712C151.566 382.064 151.806 382.408 152.11 382.744C152.43 383.08 152.814 383.368 153.262 383.608C153.71 383.832 154.246 383.944 154.87 383.944C155.494 383.944 156.03 383.816 156.478 383.56C156.942 383.288 157.318 382.936 157.606 382.504C157.91 382.072 158.134 381.584 158.278 381.04C158.422 380.48 158.494 379.912 158.494 379.336ZM167.827 367.552L167.923 367.456H168.355C168.627 367.456 168.971 367.456 169.387 367.456C169.803 367.44 170.163 367.408 170.467 367.36L171.331 367.24L171.475 367.456C171.443 367.52 171.419 367.64 171.403 367.816C171.387 367.976 171.371 368.152 171.355 368.344C171.339 368.536 171.323 368.72 171.307 368.896C171.307 369.072 171.307 369.208 171.307 369.304C171.291 369.56 171.275 369.8 171.259 370.024C171.259 370.248 171.251 370.512 171.235 370.816C171.235 371.12 171.235 371.488 171.235 371.92C171.235 372.352 171.235 372.904 171.235 373.576V378.808C171.235 379.48 171.235 380.032 171.235 380.464C171.251 380.896 171.259 381.264 171.259 381.568C171.275 381.872 171.283 382.136 171.283 382.36C171.299 382.584 171.315 382.84 171.331 383.128C171.363 383.464 171.395 383.72 171.427 383.896C171.475 384.056 171.563 384.192 171.691 384.304C171.819 384.416 171.995 384.488 172.219 384.52C172.459 384.552 172.699 384.568 172.939 384.568L173.059 384.688L173.107 385L173.059 385.096C172.947 385.096 172.779 385.088 172.555 385.072C172.331 385.056 172.091 385.04 171.835 385.024C171.579 385.024 171.339 385.016 171.115 385C170.891 385 170.723 385 170.611 385H170.275C170.163 385 169.987 385 169.747 385C169.523 385.016 169.283 385.024 169.027 385.024C168.787 385.04 168.547 385.056 168.307 385.072C168.083 385.088 167.915 385.096 167.803 385.096L167.779 385L167.803 384.664L167.899 384.568C168.155 384.568 168.403 384.56 168.643 384.544C168.899 384.512 169.091 384.432 169.219 384.304C169.347 384.192 169.427 384.048 169.459 383.872C169.507 383.696 169.547 383.448 169.579 383.128C169.595 382.92 169.603 382.712 169.603 382.504C169.619 382.296 169.627 382.056 169.627 381.784C169.643 381.496 169.651 381.168 169.651 380.8C169.651 380.416 169.651 379.944 169.651 379.384V373.624C169.651 372.968 169.651 372.416 169.651 371.968C169.651 371.504 169.643 371.104 169.627 370.768C169.627 370.432 169.619 370.136 169.603 369.88C169.603 369.624 169.595 369.368 169.579 369.112C169.563 368.936 169.515 368.784 169.435 368.656C169.371 368.528 169.315 368.432 169.267 368.368C169.107 368.192 168.907 368.08 168.667 368.032C168.427 367.984 168.179 367.96 167.923 367.96L167.827 367.864V367.552ZM180.656 373.6C181.6 373.6 182.44 373.768 183.176 374.104C183.912 374.424 184.528 374.864 185.024 375.424C185.536 375.968 185.92 376.6 186.176 377.32C186.448 378.04 186.584 378.784 186.584 379.552C186.584 380.288 186.464 381 186.224 381.688C185.984 382.376 185.616 382.984 185.12 383.512C184.624 384.04 184.008 384.464 183.272 384.784C182.536 385.104 181.68 385.264 180.704 385.264C179.696 385.264 178.816 385.096 178.064 384.76C177.312 384.424 176.688 383.984 176.192 383.44C175.712 382.896 175.352 382.28 175.112 381.592C174.872 380.888 174.752 380.168 174.752 379.432C174.752 378.648 174.888 377.904 175.16 377.2C175.432 376.496 175.816 375.88 176.312 375.352C176.824 374.808 177.44 374.384 178.16 374.08C178.896 373.76 179.728 373.6 180.656 373.6ZM180.68 384.328C181.352 384.328 181.944 384.192 182.456 383.92C182.968 383.648 183.392 383.288 183.728 382.84C184.064 382.392 184.312 381.888 184.472 381.328C184.648 380.752 184.736 380.16 184.736 379.552C184.736 378.976 184.64 378.392 184.448 377.8C184.272 377.208 184.008 376.68 183.656 376.216C183.304 375.736 182.872 375.352 182.36 375.064C181.848 374.76 181.256 374.608 180.584 374.608C179.88 374.608 179.272 374.752 178.76 375.04C178.264 375.312 177.848 375.672 177.512 376.12C177.192 376.568 176.952 377.08 176.792 377.656C176.632 378.232 176.552 378.808 176.552 379.384C176.552 379.976 176.64 380.568 176.816 381.16C177.008 381.736 177.28 382.264 177.632 382.744C177.984 383.208 178.416 383.592 178.928 383.896C179.44 384.184 180.024 384.328 180.68 384.328ZM197.912 376.528L197.816 376.456C197.816 376.088 197.704 375.792 197.48 375.568C197.272 375.328 197.016 375.144 196.712 375.016C196.408 374.888 196.08 374.8 195.728 374.752C195.392 374.704 195.096 374.68 194.84 374.68C194.104 374.68 193.464 374.816 192.92 375.088C192.392 375.344 191.952 375.696 191.6 376.144C191.248 376.576 190.984 377.08 190.808 377.656C190.648 378.216 190.568 378.792 190.568 379.384C190.568 379.992 190.656 380.576 190.832 381.136C191.024 381.696 191.312 382.192 191.696 382.624C192.08 383.056 192.56 383.4 193.136 383.656C193.712 383.912 194.4 384.04 195.2 384.04C195.744 384.04 196.344 383.96 197 383.8C197.672 383.624 198.248 383.408 198.728 383.152L198.968 383.392L198.608 384.064C198.432 384.192 198.2 384.328 197.912 384.472C197.64 384.6 197.328 384.728 196.976 384.856C196.624 384.968 196.24 385.064 195.824 385.144C195.424 385.224 195.024 385.264 194.624 385.264C193.84 385.264 193.088 385.128 192.368 384.856C191.664 384.568 191.04 384.176 190.496 383.68C189.968 383.168 189.544 382.56 189.224 381.856C188.904 381.136 188.744 380.344 188.744 379.48C188.744 378.6 188.904 377.8 189.224 377.08C189.544 376.36 189.984 375.744 190.544 375.232C191.104 374.72 191.752 374.32 192.488 374.032C193.24 373.744 194.04 373.6 194.888 373.6C195.656 373.6 196.376 373.696 197.048 373.888C197.736 374.08 198.256 374.272 198.608 374.464L198.68 374.68L198.416 376.528H197.912ZM207.651 384.832C207.699 384.656 207.731 384.392 207.747 384.04C207.779 383.688 207.819 383.36 207.867 383.056L207.843 382.984C207.635 383.272 207.387 383.552 207.099 383.824C206.811 384.096 206.491 384.344 206.139 384.568C205.803 384.776 205.435 384.944 205.035 385.072C204.651 385.2 204.243 385.264 203.811 385.264C203.315 385.264 202.875 385.176 202.491 385C202.107 384.824 201.787 384.592 201.531 384.304C201.275 384.016 201.083 383.68 200.955 383.296C200.827 382.912 200.763 382.512 200.763 382.096C200.763 381.504 200.899 380.992 201.171 380.56C201.443 380.112 201.803 379.744 202.251 379.456C202.667 379.2 203.155 378.992 203.715 378.832C204.291 378.672 204.843 378.56 205.371 378.496C205.915 378.416 206.403 378.368 206.835 378.352C207.267 378.32 207.555 378.304 207.699 378.304H208.035C208.019 377.712 207.987 377.248 207.939 376.912C207.891 376.56 207.827 376.272 207.747 376.048C207.571 375.568 207.267 375.224 206.835 375.016C206.403 374.792 205.883 374.68 205.275 374.68C205.019 374.68 204.739 374.704 204.435 374.752C204.147 374.8 203.867 374.888 203.595 375.016C203.339 375.144 203.115 375.328 202.923 375.568C202.731 375.792 202.619 376.088 202.587 376.456L202.491 376.528H201.963L201.747 374.752L201.819 374.608C201.899 374.512 202.067 374.408 202.323 374.296C202.579 374.184 202.875 374.08 203.211 373.984C203.563 373.872 203.947 373.784 204.363 373.72C204.795 373.64 205.219 373.6 205.635 373.6C206.211 373.6 206.747 373.68 207.243 373.84C207.739 373.984 208.163 374.208 208.515 374.512C208.883 374.816 209.171 375.2 209.379 375.664C209.587 376.112 209.691 376.64 209.691 377.248C209.691 377.92 209.683 378.52 209.667 379.048C209.667 379.56 209.659 380.04 209.643 380.488C209.627 380.92 209.611 381.352 209.595 381.784C209.595 382.2 209.595 382.648 209.595 383.128C209.627 383.496 209.667 383.768 209.715 383.944C209.763 384.104 209.843 384.224 209.955 384.304C210.083 384.432 210.267 384.512 210.507 384.544C210.763 384.56 211.019 384.568 211.275 384.568L211.371 384.664L211.395 385L211.371 385.096C211.083 385.064 210.771 385.04 210.435 385.024C210.099 385.008 209.771 385 209.451 385C208.843 385 208.291 385.024 207.795 385.072L207.651 384.832ZM207.651 382.24C207.699 382.16 207.747 382.064 207.795 381.952C207.859 381.84 207.899 381.704 207.915 381.544L208.035 379.144H207.819C207.179 379.144 206.539 379.184 205.899 379.264C205.259 379.328 204.683 379.464 204.171 379.672C203.675 379.88 203.267 380.168 202.947 380.536C202.627 380.904 202.467 381.376 202.467 381.952C202.467 382.56 202.643 383.048 202.995 383.416C203.347 383.768 203.803 383.944 204.363 383.944C204.699 383.944 205.035 383.888 205.371 383.776C205.707 383.664 206.019 383.52 206.307 383.344C206.611 383.168 206.875 382.984 207.099 382.792C207.339 382.6 207.523 382.416 207.651 382.24ZM218.885 375.088H215.765C215.765 376.128 215.757 377.088 215.741 377.968C215.741 378.848 215.741 379.624 215.741 380.296C215.741 380.952 215.733 381.48 215.717 381.88C215.717 382.28 215.717 382.528 215.717 382.624C215.717 383.248 215.837 383.664 216.077 383.872C216.317 384.08 216.597 384.184 216.917 384.184C217.189 384.184 217.501 384.136 217.853 384.04C218.221 383.928 218.517 383.808 218.741 383.68L218.957 383.848L218.741 384.52C218.373 384.776 217.957 384.96 217.493 385.072C217.045 385.2 216.645 385.264 216.293 385.264C215.477 385.264 214.901 385.04 214.565 384.592C214.229 384.144 214.061 383.568 214.061 382.864C214.061 382.72 214.069 382.424 214.085 381.976C214.101 381.528 214.117 380.968 214.133 380.296C214.149 379.624 214.165 378.848 214.181 377.968C214.197 377.088 214.205 376.128 214.205 375.088H212.477L212.381 374.968V374.512L212.477 374.416L214.205 374.08C214.205 373.52 214.189 372.952 214.157 372.376C214.141 371.784 214.117 371.208 214.085 370.648L214.253 370.504L214.589 370.48C214.717 370.464 214.925 370.432 215.213 370.384C215.501 370.336 215.701 370.28 215.813 370.216L216.029 370.312C215.981 370.536 215.941 370.8 215.909 371.104C215.877 371.392 215.845 371.704 215.813 372.04C215.797 372.376 215.781 372.72 215.765 373.072C215.765 373.424 215.765 373.76 215.765 374.08L218.885 373.936L219.005 374.032V374.968L218.885 375.088ZM231.129 378.544L230.745 378.712C229.881 378.712 228.993 378.72 228.081 378.736C227.169 378.752 226.273 378.76 225.393 378.76H222.561C222.545 378.872 222.537 378.984 222.537 379.096C222.537 379.192 222.537 379.288 222.537 379.384C222.537 379.992 222.625 380.576 222.801 381.136C222.977 381.68 223.249 382.16 223.617 382.576C224.001 382.992 224.489 383.328 225.081 383.584C225.673 383.824 226.393 383.944 227.241 383.944C227.737 383.944 228.265 383.896 228.825 383.8C229.401 383.688 229.929 383.496 230.409 383.224L230.649 383.368V383.8L230.409 384.064C230.025 384.368 229.481 384.648 228.777 384.904C228.073 385.144 227.289 385.264 226.425 385.264C225.577 385.264 224.801 385.128 224.097 384.856C223.409 384.568 222.809 384.168 222.297 383.656C221.801 383.144 221.409 382.536 221.121 381.832C220.849 381.128 220.713 380.344 220.713 379.48C220.713 378.6 220.857 377.8 221.145 377.08C221.433 376.36 221.825 375.744 222.321 375.232C222.833 374.72 223.425 374.32 224.097 374.032C224.785 373.744 225.521 373.6 226.305 373.6C226.721 373.6 227.185 373.656 227.697 373.768C228.225 373.88 228.729 374.096 229.209 374.416C229.689 374.72 230.121 375.16 230.505 375.736C230.889 376.296 231.153 377.04 231.297 377.968L231.129 378.544ZM226.329 374.68C225.817 374.68 225.353 374.768 224.937 374.944C224.537 375.104 224.177 375.328 223.857 375.616C223.553 375.888 223.297 376.216 223.089 376.6C222.897 376.968 222.761 377.36 222.681 377.776H223.617C224.481 377.776 225.321 377.768 226.137 377.752C226.953 377.72 227.809 377.68 228.705 377.632C228.913 377.616 229.049 377.56 229.113 377.464C229.193 377.368 229.233 377.256 229.233 377.128C229.233 377.032 229.225 376.944 229.209 376.864C229.193 376.784 229.169 376.704 229.137 376.624C228.961 376.016 228.633 375.544 228.153 375.208C227.673 374.856 227.065 374.68 226.329 374.68ZM242.299 384.832C242.347 384.656 242.387 384.392 242.419 384.04C242.467 383.688 242.507 383.376 242.539 383.104L242.515 383.008C242.067 383.68 241.515 384.224 240.859 384.64C240.203 385.056 239.451 385.264 238.603 385.264C237.691 385.264 236.899 385.104 236.227 384.784C235.571 384.464 235.027 384.04 234.595 383.512C234.179 382.984 233.867 382.384 233.659 381.712C233.451 381.024 233.347 380.312 233.347 379.576C233.347 378.488 233.515 377.568 233.851 376.816C234.187 376.048 234.611 375.432 235.123 374.968C235.635 374.488 236.195 374.144 236.803 373.936C237.427 373.712 238.019 373.6 238.579 373.6C239.347 373.6 240.083 373.776 240.787 374.128C241.491 374.464 242.091 375.04 242.587 375.856L242.635 375.76C242.603 375.392 242.587 375.04 242.587 374.704C242.587 374.352 242.587 373.992 242.587 373.624C242.587 372.968 242.587 372.416 242.587 371.968C242.587 371.504 242.579 371.104 242.563 370.768C242.563 370.432 242.555 370.136 242.539 369.88C242.539 369.624 242.531 369.368 242.515 369.112C242.499 368.936 242.451 368.784 242.371 368.656C242.307 368.528 242.251 368.432 242.203 368.368C242.043 368.192 241.843 368.08 241.603 368.032C241.363 367.984 241.115 367.96 240.859 367.96L240.763 367.864V367.552L240.859 367.456H241.291C241.563 367.456 241.907 367.456 242.323 367.456C242.739 367.44 243.099 367.408 243.403 367.36L244.243 367.24L244.387 367.456C244.355 367.52 244.323 367.64 244.291 367.816C244.275 367.976 244.259 368.152 244.243 368.344C244.243 368.536 244.235 368.72 244.219 368.896C244.219 369.072 244.219 369.208 244.219 369.304C244.219 369.56 244.211 369.8 244.195 370.024C244.195 370.248 244.195 370.512 244.195 370.816C244.195 371.12 244.187 371.488 244.171 371.92C244.171 372.352 244.171 372.904 244.171 373.576V378.808C244.171 379.48 244.171 380.032 244.171 380.464C244.187 380.896 244.195 381.264 244.195 381.568C244.211 381.872 244.219 382.136 244.219 382.36C244.235 382.584 244.251 382.84 244.267 383.128C244.299 383.496 244.339 383.768 244.387 383.944C244.435 384.104 244.507 384.224 244.603 384.304C244.747 384.432 244.939 384.512 245.179 384.544C245.419 384.56 245.667 384.568 245.923 384.568L246.019 384.664L246.067 385L246.019 385.096C245.731 385.064 245.419 385.04 245.083 385.024C244.763 385.008 244.435 385 244.099 385C243.507 385 242.963 385.024 242.467 385.072L242.299 384.832ZM235.171 379.528C235.171 380.072 235.243 380.608 235.387 381.136C235.531 381.664 235.747 382.136 236.035 382.552C236.323 382.952 236.691 383.28 237.139 383.536C237.587 383.776 238.123 383.896 238.747 383.896C239.339 383.896 239.867 383.784 240.331 383.56C240.811 383.336 241.211 383.064 241.531 382.744C241.851 382.424 242.099 382.088 242.275 381.736C242.467 381.384 242.571 381.08 242.587 380.824V378.16C242.555 377.904 242.451 377.592 242.275 377.224C242.115 376.856 241.875 376.504 241.555 376.168C241.251 375.816 240.867 375.52 240.403 375.28C239.955 375.04 239.419 374.92 238.795 374.92C238.155 374.92 237.603 375.056 237.139 375.328C236.691 375.584 236.315 375.928 236.011 376.36C235.723 376.792 235.507 377.288 235.363 377.848C235.235 378.392 235.171 378.952 235.171 379.528ZM21.048 412.096C20.936 412.096 20.768 412.088 20.544 412.072C20.32 412.056 20.08 412.04 19.824 412.024C19.568 412.024 19.328 412.016 19.104 412C18.88 412 18.712 412 18.6 412H18.264C18.152 412 17.976 412 17.736 412C17.512 412.016 17.272 412.024 17.016 412.024C16.776 412.04 16.536 412.056 16.296 412.072C16.072 412.088 15.904 412.096 15.792 412.096L15.768 412L15.792 411.664L15.888 411.568C16.144 411.568 16.392 411.56 16.632 411.544C16.888 411.512 17.08 411.432 17.208 411.304C17.336 411.192 17.416 411.048 17.448 410.872C17.496 410.696 17.536 410.448 17.568 410.128C17.584 409.872 17.6 409.616 17.616 409.36C17.632 409.088 17.64 408.664 17.64 408.088V405.136C17.64 404.8 17.64 404.52 17.64 404.296C17.64 404.056 17.632 403.848 17.616 403.672C17.616 403.496 17.608 403.336 17.592 403.192C17.592 403.048 17.584 402.896 17.568 402.736C17.536 402.56 17.488 402.408 17.424 402.28C17.36 402.136 17.304 402.04 17.256 401.992C17.096 401.8 16.896 401.688 16.656 401.656C16.416 401.608 16.168 401.584 15.912 401.584L15.816 401.488V401.152L15.912 401.08H16.344C16.616 401.08 16.96 401.08 17.376 401.08C17.792 401.064 18.152 401.032 18.456 400.984L19.296 400.864L19.44 401.08C19.408 401.144 19.376 401.256 19.344 401.416C19.328 401.576 19.312 401.752 19.296 401.944C19.296 402.12 19.288 402.296 19.272 402.472C19.272 402.648 19.272 402.784 19.272 402.88C19.272 403.008 19.264 403.136 19.248 403.264C19.248 403.376 19.248 403.512 19.248 403.672C19.248 403.832 19.24 404.024 19.224 404.248C19.224 404.472 19.224 404.76 19.224 405.112V407.8C19.224 408.152 19.224 408.44 19.224 408.664C19.24 408.888 19.248 409.08 19.248 409.24C19.264 409.4 19.272 409.552 19.272 409.696C19.288 409.824 19.304 409.968 19.32 410.128C19.352 410.464 19.384 410.72 19.416 410.896C19.464 411.056 19.552 411.192 19.68 411.304C19.808 411.416 19.984 411.488 20.208 411.52C20.448 411.552 20.688 411.568 20.928 411.568L21.048 411.688L21.096 412L21.048 412.096ZM17.016 396.856C17.016 396.536 17.12 396.264 17.328 396.04C17.552 395.8 17.824 395.68 18.144 395.68C18.464 395.68 18.736 395.8 18.96 396.04C19.2 396.264 19.32 396.536 19.32 396.856C19.32 397.176 19.2 397.448 18.96 397.672C18.736 397.88 18.464 397.984 18.144 397.984C17.824 397.984 17.552 397.88 17.328 397.672C17.12 397.448 17.016 397.176 17.016 396.856ZM25.9048 403.024C26.3208 402.336 26.8568 401.76 27.5128 401.296C28.1688 400.832 28.9848 400.6 29.9608 400.6C30.4088 400.6 30.8568 400.664 31.3048 400.792C31.7528 400.92 32.1608 401.12 32.5288 401.392C32.9128 401.664 33.2248 402.016 33.4648 402.448C33.7208 402.864 33.8888 403.36 33.9688 403.936C34.0168 404.352 34.0408 404.792 34.0408 405.256C34.0568 405.72 34.0648 406.184 34.0648 406.648C34.0648 407.224 34.0648 407.808 34.0648 408.4C34.0808 408.976 34.0888 409.552 34.0888 410.128C34.1208 410.496 34.1608 410.768 34.2088 410.944C34.2568 411.104 34.3288 411.224 34.4248 411.304C34.5688 411.432 34.7608 411.512 35.0008 411.544C35.2568 411.56 35.5128 411.568 35.7688 411.568L35.8408 411.664L35.8888 412L35.8408 412.096C35.5688 412.064 35.2648 412.04 34.9288 412.024C34.5928 412.008 34.2648 412 33.9448 412C33.3368 412 32.7848 412.024 32.2888 412.072L32.1208 411.832C32.1848 411.624 32.2328 411.352 32.2648 411.016C32.2968 410.68 32.3208 410.384 32.3368 410.128C32.3688 409.456 32.3928 408.8 32.4088 408.16C32.4248 407.504 32.4328 406.96 32.4328 406.528C32.4328 406.16 32.4168 405.76 32.3848 405.328C32.3688 404.896 32.3208 404.52 32.2408 404.2C32.0808 403.448 31.7528 402.888 31.2568 402.52C30.7608 402.152 30.1848 401.968 29.5288 401.968C29.0008 401.968 28.5048 402.08 28.0408 402.304C27.5928 402.528 27.2088 402.808 26.8888 403.144C26.5688 403.464 26.3128 403.808 26.1208 404.176C25.9448 404.528 25.8568 404.832 25.8568 405.088V407.8C25.8568 408.152 25.8568 408.44 25.8568 408.664C25.8568 408.888 25.8568 409.08 25.8568 409.24C25.8728 409.4 25.8888 409.552 25.9048 409.696C25.9208 409.824 25.9368 409.968 25.9528 410.128C25.9848 410.464 26.0168 410.72 26.0488 410.896C26.0968 411.056 26.1848 411.192 26.3128 411.304C26.4408 411.416 26.6168 411.488 26.8408 411.52C27.0808 411.552 27.3208 411.568 27.5608 411.568L27.6808 411.688L27.7288 412L27.6808 412.096C27.5688 412.096 27.4008 412.088 27.1768 412.072C26.9528 412.056 26.7128 412.04 26.4568 412.024C26.2008 412.024 25.9608 412.016 25.7368 412C25.5128 412 25.3448 412 25.2328 412H24.8968C24.7848 412 24.6088 412 24.3688 412C24.1448 412.016 23.9048 412.024 23.6488 412.024C23.4088 412.04 23.1688 412.056 22.9288 412.072C22.7048 412.088 22.5368 412.096 22.4248 412.096L22.4008 412L22.4248 411.664L22.5208 411.568C22.7768 411.568 23.0248 411.56 23.2648 411.544C23.5208 411.512 23.7128 411.432 23.8408 411.304C23.9688 411.192 24.0488 411.048 24.0808 410.872C24.1288 410.696 24.1688 410.448 24.2008 410.128C24.2168 409.872 24.2328 409.616 24.2488 409.36C24.2648 409.088 24.2728 408.664 24.2728 408.088V405.136C24.2728 404.8 24.2728 404.52 24.2728 404.296C24.2728 404.056 24.2648 403.848 24.2488 403.672C24.2488 403.496 24.2408 403.336 24.2248 403.192C24.2248 403.048 24.2168 402.896 24.2008 402.736C24.1688 402.56 24.1208 402.408 24.0568 402.28C23.9928 402.136 23.9368 402.04 23.8888 401.992C23.7288 401.8 23.5288 401.688 23.2888 401.656C23.0488 401.608 22.8008 401.584 22.5448 401.584L22.4488 401.488V401.152L22.5448 401.08H22.9768C23.2488 401.08 23.5928 401.08 24.0088 401.08C24.4248 401.064 24.7848 401.032 25.0888 400.984L25.9288 400.864L26.0728 401.08C25.9928 401.288 25.9368 401.576 25.9048 401.944C25.8728 402.296 25.8488 402.64 25.8328 402.976L25.9048 403.024ZM49.1274 402.088H46.0074C46.0074 403.128 45.9994 404.088 45.9834 404.968C45.9834 405.848 45.9834 406.624 45.9834 407.296C45.9834 407.952 45.9754 408.48 45.9594 408.88C45.9594 409.28 45.9594 409.528 45.9594 409.624C45.9594 410.248 46.0794 410.664 46.3194 410.872C46.5594 411.08 46.8394 411.184 47.1594 411.184C47.4314 411.184 47.7434 411.136 48.0954 411.04C48.4634 410.928 48.7594 410.808 48.9834 410.68L49.1994 410.848L48.9834 411.52C48.6154 411.776 48.1994 411.96 47.7354 412.072C47.2874 412.2 46.8874 412.264 46.5354 412.264C45.7194 412.264 45.1434 412.04 44.8074 411.592C44.4714 411.144 44.3034 410.568 44.3034 409.864C44.3034 409.72 44.3114 409.424 44.3274 408.976C44.3434 408.528 44.3594 407.968 44.3754 407.296C44.3914 406.624 44.4074 405.848 44.4234 404.968C44.4394 404.088 44.4474 403.128 44.4474 402.088H42.7194L42.6234 401.968V401.512L42.7194 401.416L44.4474 401.08C44.4474 400.52 44.4314 399.952 44.3994 399.376C44.3834 398.784 44.3594 398.208 44.3274 397.648L44.4954 397.504L44.8314 397.48C44.9594 397.464 45.1674 397.432 45.4554 397.384C45.7434 397.336 45.9434 397.28 46.0554 397.216L46.2714 397.312C46.2234 397.536 46.1834 397.8 46.1514 398.104C46.1194 398.392 46.0874 398.704 46.0554 399.04C46.0394 399.376 46.0234 399.72 46.0074 400.072C46.0074 400.424 46.0074 400.76 46.0074 401.08L49.1274 400.936L49.2474 401.032V401.968L49.1274 402.088ZM60.0516 411.832C60.1156 411.624 60.1636 411.352 60.1956 411.016C60.2276 410.68 60.2516 410.384 60.2676 410.128C60.2996 409.456 60.3236 408.8 60.3396 408.16C60.3556 407.504 60.3636 406.96 60.3636 406.528C60.3636 406.16 60.3476 405.76 60.3156 405.328C60.2996 404.896 60.2516 404.52 60.1716 404.2C60.0116 403.448 59.6836 402.888 59.1876 402.52C58.6916 402.152 58.1156 401.968 57.4596 401.968C56.9316 401.968 56.4356 402.088 55.9716 402.328C55.5236 402.552 55.1396 402.832 54.8196 403.168C54.4996 403.488 54.2436 403.832 54.0516 404.2C53.8756 404.552 53.7876 404.848 53.7876 405.088C53.7876 405.952 53.7876 406.648 53.7876 407.176C53.7876 407.688 53.7876 408.12 53.7876 408.472C53.8036 408.824 53.8116 409.12 53.8116 409.36C53.8276 409.584 53.8516 409.84 53.8836 410.128C53.9156 410.464 53.9476 410.72 53.9796 410.896C54.0276 411.056 54.1156 411.192 54.2436 411.304C54.3716 411.416 54.5476 411.488 54.7716 411.52C55.0116 411.552 55.2516 411.568 55.4916 411.568L55.6116 411.688L55.6596 412L55.6116 412.096C55.4996 412.096 55.3316 412.088 55.1076 412.072C54.8836 412.056 54.6436 412.04 54.3876 412.024C54.1316 412.024 53.8916 412.016 53.6676 412C53.4436 412 53.2756 412 53.1636 412H52.8276C52.7156 412 52.5396 412 52.2996 412C52.0756 412.016 51.8356 412.024 51.5796 412.024C51.3396 412.04 51.0996 412.056 50.8596 412.072C50.6356 412.088 50.4676 412.096 50.3556 412.096L50.3316 412L50.3556 411.664L50.4516 411.568C50.7076 411.568 50.9556 411.56 51.1956 411.544C51.4516 411.512 51.6436 411.432 51.7716 411.304C51.8996 411.192 51.9796 411.048 52.0116 410.872C52.0596 410.696 52.0996 410.448 52.1316 410.128C52.1476 409.92 52.1556 409.712 52.1556 409.504C52.1716 409.296 52.1796 409.056 52.1796 408.784C52.1956 408.496 52.2036 408.168 52.2036 407.8C52.2036 407.416 52.2036 406.944 52.2036 406.384V400.624C52.2036 399.968 52.2036 399.416 52.2036 398.968C52.2036 398.504 52.1956 398.104 52.1796 397.768C52.1796 397.432 52.1716 397.136 52.1556 396.88C52.1556 396.624 52.1476 396.368 52.1316 396.112C52.1156 395.936 52.0676 395.784 51.9876 395.656C51.9236 395.528 51.8676 395.432 51.8196 395.368C51.6596 395.192 51.4596 395.08 51.2196 395.032C50.9796 394.984 50.7316 394.96 50.4756 394.96L50.3796 394.864V394.552L50.4756 394.456H50.9076C51.1796 394.456 51.5236 394.456 51.9396 394.456C52.3556 394.44 52.7156 394.408 53.0196 394.36L53.8596 394.24L54.0036 394.456C53.9716 394.52 53.9476 394.64 53.9316 394.816C53.9156 394.976 53.8996 395.152 53.8836 395.344C53.8676 395.536 53.8596 395.72 53.8596 395.896C53.8596 396.072 53.8596 396.208 53.8596 396.304C53.8596 396.816 53.8436 397.432 53.8116 398.152C53.7956 398.856 53.7876 399.664 53.7876 400.576C53.7876 401.248 53.7796 401.776 53.7636 402.16C53.7636 402.544 53.7476 402.848 53.7156 403.072L53.7876 403.12C54.1876 402.416 54.7236 401.824 55.3956 401.344C56.0676 400.848 56.8996 400.6 57.8916 400.6C58.3396 400.6 58.7876 400.664 59.2356 400.792C59.6996 400.92 60.1156 401.12 60.4836 401.392C60.8516 401.664 61.1636 402.008 61.4196 402.424C61.6756 402.84 61.8356 403.336 61.8996 403.912C61.9476 404.328 61.9716 404.808 61.9716 405.352C61.9876 405.88 61.9956 406.312 61.9956 406.648V410.032C61.9956 410.4 62.0276 410.688 62.0916 410.896C62.1716 411.088 62.2596 411.224 62.3556 411.304C62.4996 411.432 62.6916 411.512 62.9316 411.544C63.1876 411.56 63.4436 411.568 63.6996 411.568L63.7716 411.664L63.8196 412L63.7716 412.096C63.4996 412.064 63.1956 412.04 62.8596 412.024C62.5236 412.008 62.1956 412 61.8756 412C61.2676 412 60.7156 412.024 60.2196 412.072L60.0516 411.832ZM75.6919 405.544L75.3079 405.712C74.4439 405.712 73.5559 405.72 72.6439 405.736C71.7319 405.752 70.8359 405.76 69.9559 405.76H67.1239C67.1079 405.872 67.0999 405.984 67.0999 406.096C67.0999 406.192 67.0999 406.288 67.0999 406.384C67.0999 406.992 67.1879 407.576 67.3639 408.136C67.5399 408.68 67.8119 409.16 68.1799 409.576C68.5639 409.992 69.0519 410.328 69.6439 410.584C70.2359 410.824 70.9559 410.944 71.8039 410.944C72.2999 410.944 72.8279 410.896 73.3879 410.8C73.9639 410.688 74.4919 410.496 74.9719 410.224L75.2119 410.368V410.8L74.9719 411.064C74.5879 411.368 74.0439 411.648 73.3399 411.904C72.6359 412.144 71.8519 412.264 70.9879 412.264C70.1399 412.264 69.3639 412.128 68.6599 411.856C67.9719 411.568 67.3719 411.168 66.8599 410.656C66.3639 410.144 65.9719 409.536 65.6839 408.832C65.4119 408.128 65.2759 407.344 65.2759 406.48C65.2759 405.6 65.4199 404.8 65.7079 404.08C65.9959 403.36 66.3879 402.744 66.8839 402.232C67.3959 401.72 67.9879 401.32 68.6599 401.032C69.3479 400.744 70.0839 400.6 70.8679 400.6C71.2839 400.6 71.7479 400.656 72.2599 400.768C72.7879 400.88 73.2919 401.096 73.7719 401.416C74.2519 401.72 74.6839 402.16 75.0679 402.736C75.4519 403.296 75.7159 404.04 75.8599 404.968L75.6919 405.544ZM70.8919 401.68C70.3799 401.68 69.9159 401.768 69.4999 401.944C69.0999 402.104 68.7399 402.328 68.4199 402.616C68.1159 402.888 67.8599 403.216 67.6519 403.6C67.4599 403.968 67.3239 404.36 67.2439 404.776H68.1799C69.0439 404.776 69.8839 404.768 70.6999 404.752C71.5159 404.72 72.3719 404.68 73.2679 404.632C73.4759 404.616 73.6119 404.56 73.6759 404.464C73.7559 404.368 73.7959 404.256 73.7959 404.128C73.7959 404.032 73.7879 403.944 73.7719 403.864C73.7559 403.784 73.7319 403.704 73.6999 403.624C73.5239 403.016 73.1959 402.544 72.7159 402.208C72.2359 401.856 71.6279 401.68 70.8919 401.68ZM92.7469 411.832C92.8109 411.624 92.8589 411.352 92.8909 411.016C92.9229 410.68 92.9469 410.384 92.9629 410.128C92.9949 409.456 93.0189 408.8 93.0349 408.16C93.0509 407.504 93.0589 406.96 93.0589 406.528C93.0589 406.16 93.0429 405.76 93.0109 405.328C92.9949 404.896 92.9469 404.52 92.8669 404.2C92.7069 403.448 92.3789 402.888 91.8829 402.52C91.3869 402.152 90.8109 401.968 90.1549 401.968C89.6269 401.968 89.1309 402.088 88.6669 402.328C88.2189 402.552 87.8349 402.832 87.5149 403.168C87.1949 403.488 86.9389 403.832 86.7469 404.2C86.5709 404.552 86.4829 404.848 86.4829 405.088C86.4829 405.952 86.4829 406.648 86.4829 407.176C86.4829 407.688 86.4829 408.12 86.4829 408.472C86.4989 408.824 86.5069 409.12 86.5069 409.36C86.5229 409.584 86.5469 409.84 86.5789 410.128C86.6109 410.464 86.6429 410.72 86.6749 410.896C86.7229 411.056 86.8109 411.192 86.9389 411.304C87.0669 411.416 87.2429 411.488 87.4669 411.52C87.7069 411.552 87.9469 411.568 88.1869 411.568L88.3069 411.688L88.3549 412L88.3069 412.096C88.1949 412.096 88.0269 412.088 87.8029 412.072C87.5789 412.056 87.3389 412.04 87.0829 412.024C86.8269 412.024 86.5869 412.016 86.3629 412C86.1389 412 85.9709 412 85.8589 412H85.5229C85.4109 412 85.2349 412 84.9949 412C84.7709 412.016 84.5309 412.024 84.2749 412.024C84.0349 412.04 83.7949 412.056 83.5549 412.072C83.3309 412.088 83.1629 412.096 83.0509 412.096L83.0269 412L83.0509 411.664L83.1469 411.568C83.4029 411.568 83.6509 411.56 83.8909 411.544C84.1469 411.512 84.3389 411.432 84.4669 411.304C84.5949 411.192 84.6749 411.048 84.7069 410.872C84.7549 410.696 84.7949 410.448 84.8269 410.128C84.8429 409.92 84.8509 409.712 84.8509 409.504C84.8669 409.296 84.8749 409.056 84.8749 408.784C84.8909 408.496 84.8989 408.168 84.8989 407.8C84.8989 407.416 84.8989 406.944 84.8989 406.384V400.624C84.8989 399.968 84.8989 399.416 84.8989 398.968C84.8989 398.504 84.8909 398.104 84.8749 397.768C84.8749 397.432 84.8669 397.136 84.8509 396.88C84.8509 396.624 84.8429 396.368 84.8269 396.112C84.8109 395.936 84.7629 395.784 84.6829 395.656C84.6189 395.528 84.5629 395.432 84.5149 395.368C84.3549 395.192 84.1549 395.08 83.9149 395.032C83.6749 394.984 83.4269 394.96 83.1709 394.96L83.0749 394.864V394.552L83.1709 394.456H83.6029C83.8749 394.456 84.2189 394.456 84.6349 394.456C85.0509 394.44 85.4109 394.408 85.7149 394.36L86.5549 394.24L86.6989 394.456C86.6669 394.52 86.6429 394.64 86.6269 394.816C86.6109 394.976 86.5949 395.152 86.5789 395.344C86.5629 395.536 86.5549 395.72 86.5549 395.896C86.5549 396.072 86.5549 396.208 86.5549 396.304C86.5549 396.816 86.5389 397.432 86.5069 398.152C86.4909 398.856 86.4829 399.664 86.4829 400.576C86.4829 401.248 86.4749 401.776 86.4589 402.16C86.4589 402.544 86.4429 402.848 86.4109 403.072L86.4829 403.12C86.8829 402.416 87.4189 401.824 88.0909 401.344C88.7629 400.848 89.5949 400.6 90.5869 400.6C91.0349 400.6 91.4829 400.664 91.9309 400.792C92.3949 400.92 92.8109 401.12 93.1789 401.392C93.5469 401.664 93.8589 402.008 94.1149 402.424C94.3709 402.84 94.5309 403.336 94.5949 403.912C94.6429 404.328 94.6669 404.808 94.6669 405.352C94.6829 405.88 94.6909 406.312 94.6909 406.648V410.032C94.6909 410.4 94.7229 410.688 94.7869 410.896C94.8669 411.088 94.9549 411.224 95.0509 411.304C95.1949 411.432 95.3869 411.512 95.6269 411.544C95.8829 411.56 96.1389 411.568 96.3949 411.568L96.4669 411.664L96.5149 412L96.4669 412.096C96.1949 412.064 95.8909 412.04 95.5549 412.024C95.2189 412.008 94.8909 412 94.5709 412C93.9629 412 93.4109 412.024 92.9149 412.072L92.7469 411.832ZM108.387 405.544L108.003 405.712C107.139 405.712 106.251 405.72 105.339 405.736C104.427 405.752 103.531 405.76 102.651 405.76H99.8192C99.8032 405.872 99.7952 405.984 99.7952 406.096C99.7952 406.192 99.7952 406.288 99.7952 406.384C99.7952 406.992 99.8832 407.576 100.059 408.136C100.235 408.68 100.507 409.16 100.875 409.576C101.259 409.992 101.747 410.328 102.339 410.584C102.931 410.824 103.651 410.944 104.499 410.944C104.995 410.944 105.523 410.896 106.083 410.8C106.659 410.688 107.187 410.496 107.667 410.224L107.907 410.368V410.8L107.667 411.064C107.283 411.368 106.739 411.648 106.035 411.904C105.331 412.144 104.547 412.264 103.683 412.264C102.835 412.264 102.059 412.128 101.355 411.856C100.667 411.568 100.067 411.168 99.5552 410.656C99.0592 410.144 98.6672 409.536 98.3792 408.832C98.1072 408.128 97.9712 407.344 97.9712 406.48C97.9712 405.6 98.1152 404.8 98.4032 404.08C98.6912 403.36 99.0832 402.744 99.5792 402.232C100.091 401.72 100.683 401.32 101.355 401.032C102.043 400.744 102.779 400.6 103.563 400.6C103.979 400.6 104.443 400.656 104.955 400.768C105.483 400.88 105.987 401.096 106.467 401.416C106.947 401.72 107.379 402.16 107.763 402.736C108.147 403.296 108.411 404.04 108.555 404.968L108.387 405.544ZM103.587 401.68C103.075 401.68 102.611 401.768 102.195 401.944C101.795 402.104 101.435 402.328 101.115 402.616C100.811 402.888 100.555 403.216 100.347 403.6C100.155 403.968 100.019 404.36 99.9392 404.776H100.875C101.739 404.776 102.579 404.768 103.395 404.752C104.211 404.72 105.067 404.68 105.963 404.632C106.171 404.616 106.307 404.56 106.371 404.464C106.451 404.368 106.491 404.256 106.491 404.128C106.491 404.032 106.483 403.944 106.467 403.864C106.451 403.784 106.427 403.704 106.395 403.624C106.219 403.016 105.891 402.544 105.411 402.208C104.931 401.856 104.323 401.68 103.587 401.68ZM117.253 411.832C117.301 411.656 117.333 411.392 117.349 411.04C117.381 410.688 117.421 410.36 117.469 410.056L117.445 409.984C117.237 410.272 116.989 410.552 116.701 410.824C116.413 411.096 116.093 411.344 115.741 411.568C115.405 411.776 115.037 411.944 114.637 412.072C114.253 412.2 113.845 412.264 113.413 412.264C112.917 412.264 112.477 412.176 112.093 412C111.709 411.824 111.389 411.592 111.133 411.304C110.877 411.016 110.685 410.68 110.557 410.296C110.429 409.912 110.365 409.512 110.365 409.096C110.365 408.504 110.501 407.992 110.773 407.56C111.045 407.112 111.405 406.744 111.853 406.456C112.269 406.2 112.757 405.992 113.317 405.832C113.893 405.672 114.445 405.56 114.973 405.496C115.517 405.416 116.005 405.368 116.437 405.352C116.869 405.32 117.157 405.304 117.301 405.304H117.637C117.621 404.712 117.589 404.248 117.541 403.912C117.493 403.56 117.429 403.272 117.349 403.048C117.173 402.568 116.869 402.224 116.437 402.016C116.005 401.792 115.485 401.68 114.877 401.68C114.621 401.68 114.341 401.704 114.037 401.752C113.749 401.8 113.469 401.888 113.197 402.016C112.941 402.144 112.717 402.328 112.525 402.568C112.333 402.792 112.221 403.088 112.189 403.456L112.093 403.528H111.565L111.349 401.752L111.421 401.608C111.501 401.512 111.669 401.408 111.925 401.296C112.181 401.184 112.477 401.08 112.813 400.984C113.165 400.872 113.549 400.784 113.965 400.72C114.397 400.64 114.821 400.6 115.237 400.6C115.813 400.6 116.349 400.68 116.845 400.84C117.341 400.984 117.765 401.208 118.117 401.512C118.485 401.816 118.773 402.2 118.981 402.664C119.189 403.112 119.293 403.64 119.293 404.248C119.293 404.92 119.285 405.52 119.269 406.048C119.269 406.56 119.261 407.04 119.245 407.488C119.229 407.92 119.213 408.352 119.197 408.784C119.197 409.2 119.197 409.648 119.197 410.128C119.229 410.496 119.269 410.768 119.317 410.944C119.365 411.104 119.445 411.224 119.557 411.304C119.685 411.432 119.869 411.512 120.109 411.544C120.365 411.56 120.621 411.568 120.877 411.568L120.973 411.664L120.997 412L120.973 412.096C120.685 412.064 120.373 412.04 120.037 412.024C119.701 412.008 119.373 412 119.053 412C118.445 412 117.893 412.024 117.397 412.072L117.253 411.832ZM117.253 409.24C117.301 409.16 117.349 409.064 117.397 408.952C117.461 408.84 117.501 408.704 117.517 408.544L117.637 406.144H117.421C116.781 406.144 116.141 406.184 115.501 406.264C114.861 406.328 114.285 406.464 113.773 406.672C113.277 406.88 112.869 407.168 112.549 407.536C112.229 407.904 112.069 408.376 112.069 408.952C112.069 409.56 112.245 410.048 112.597 410.416C112.949 410.768 113.405 410.944 113.965 410.944C114.301 410.944 114.637 410.888 114.973 410.776C115.309 410.664 115.621 410.52 115.909 410.344C116.213 410.168 116.477 409.984 116.701 409.792C116.941 409.6 117.125 409.416 117.253 409.24ZM125.631 403.504C125.791 403.2 125.967 402.88 126.159 402.544C126.367 402.208 126.599 401.896 126.855 401.608C127.111 401.32 127.399 401.08 127.719 400.888C128.055 400.696 128.431 400.6 128.847 400.6C129.135 400.6 129.455 400.648 129.807 400.744C130.175 400.824 130.423 400.936 130.551 401.08L130.743 401.296L130.455 403.144H129.663C129.615 402.92 129.487 402.72 129.279 402.544C129.087 402.352 128.783 402.256 128.367 402.256C127.967 402.256 127.599 402.376 127.263 402.616C126.927 402.84 126.631 403.128 126.375 403.48C126.135 403.832 125.943 404.208 125.799 404.608C125.671 404.992 125.607 405.344 125.607 405.664V407.8C125.607 408.152 125.607 408.44 125.607 408.664C125.623 408.872 125.631 409.056 125.631 409.216C125.647 409.36 125.655 409.488 125.655 409.6C125.671 409.696 125.679 409.8 125.679 409.912L125.703 410.128C125.735 410.368 125.767 410.6 125.799 410.824C125.847 411.032 125.935 411.192 126.063 411.304C126.143 411.368 126.255 411.416 126.399 411.448C126.559 411.48 126.719 411.504 126.879 411.52C127.055 411.536 127.223 411.552 127.383 411.568C127.543 411.568 127.671 411.568 127.767 411.568L127.887 411.688L127.935 412L127.887 412.096C127.775 412.096 127.591 412.088 127.335 412.072C127.095 412.056 126.839 412.04 126.567 412.024C126.295 412.024 126.031 412.016 125.775 412C125.535 412 125.359 412 125.247 412H124.671C124.559 412 124.383 412 124.143 412C123.919 412.016 123.679 412.024 123.423 412.024C123.167 412.04 122.919 412.056 122.679 412.072C122.455 412.088 122.287 412.096 122.175 412.096L122.151 412L122.175 411.664L122.271 411.568C122.527 411.568 122.775 411.56 123.015 411.544C123.271 411.512 123.463 411.432 123.591 411.304C123.719 411.192 123.799 411.048 123.831 410.872C123.879 410.696 123.919 410.448 123.951 410.128L123.975 409.912C123.991 409.752 123.999 409.552 123.999 409.312C124.015 409.072 124.023 408.664 124.023 408.088V405.136C124.023 404.8 124.023 404.52 124.023 404.296C124.023 404.056 124.015 403.848 123.999 403.672C123.999 403.496 123.991 403.336 123.975 403.192C123.975 403.048 123.967 402.896 123.951 402.736C123.919 402.56 123.871 402.408 123.807 402.28C123.743 402.136 123.687 402.04 123.639 401.992C123.479 401.8 123.279 401.688 123.039 401.656C122.799 401.608 122.551 401.584 122.295 401.584L122.199 401.488V401.152L122.295 401.08H122.727C122.999 401.08 123.343 401.08 123.759 401.08C124.175 401.064 124.535 401.032 124.839 400.984L125.679 400.864L125.823 401.08C125.727 401.416 125.655 401.8 125.607 402.232C125.575 402.664 125.559 403.08 125.559 403.48L125.631 403.504ZM138.284 402.088H135.164C135.164 403.128 135.156 404.088 135.14 404.968C135.14 405.848 135.14 406.624 135.14 407.296C135.14 407.952 135.132 408.48 135.116 408.88C135.116 409.28 135.116 409.528 135.116 409.624C135.116 410.248 135.236 410.664 135.476 410.872C135.716 411.08 135.996 411.184 136.316 411.184C136.588 411.184 136.9 411.136 137.252 411.04C137.62 410.928 137.916 410.808 138.14 410.68L138.356 410.848L138.14 411.52C137.772 411.776 137.356 411.96 136.892 412.072C136.444 412.2 136.044 412.264 135.692 412.264C134.876 412.264 134.3 412.04 133.964 411.592C133.628 411.144 133.46 410.568 133.46 409.864C133.46 409.72 133.468 409.424 133.484 408.976C133.5 408.528 133.516 407.968 133.532 407.296C133.548 406.624 133.564 405.848 133.58 404.968C133.596 404.088 133.604 403.128 133.604 402.088H131.876L131.78 401.968V401.512L131.876 401.416L133.604 401.08C133.604 400.52 133.588 399.952 133.556 399.376C133.54 398.784 133.516 398.208 133.484 397.648L133.652 397.504L133.988 397.48C134.116 397.464 134.324 397.432 134.612 397.384C134.9 397.336 135.1 397.28 135.212 397.216L135.428 397.312C135.38 397.536 135.34 397.8 135.308 398.104C135.276 398.392 135.244 398.704 135.212 399.04C135.196 399.376 135.18 399.72 135.164 400.072C135.164 400.424 135.164 400.76 135.164 401.08L138.284 400.936L138.404 401.032V401.968L138.284 402.088ZM151.757 400.6C152.701 400.6 153.541 400.768 154.277 401.104C155.013 401.424 155.629 401.864 156.125 402.424C156.637 402.968 157.021 403.6 157.277 404.32C157.549 405.04 157.685 405.784 157.685 406.552C157.685 407.288 157.565 408 157.325 408.688C157.085 409.376 156.717 409.984 156.221 410.512C155.725 411.04 155.109 411.464 154.373 411.784C153.637 412.104 152.781 412.264 151.805 412.264C150.797 412.264 149.917 412.096 149.165 411.76C148.413 411.424 147.789 410.984 147.293 410.44C146.813 409.896 146.453 409.28 146.213 408.592C145.973 407.888 145.853 407.168 145.853 406.432C145.853 405.648 145.989 404.904 146.261 404.2C146.533 403.496 146.917 402.88 147.413 402.352C147.925 401.808 148.541 401.384 149.261 401.08C149.997 400.76 150.829 400.6 151.757 400.6ZM151.781 411.328C152.453 411.328 153.045 411.192 153.557 410.92C154.069 410.648 154.493 410.288 154.829 409.84C155.165 409.392 155.413 408.888 155.573 408.328C155.749 407.752 155.837 407.16 155.837 406.552C155.837 405.976 155.741 405.392 155.549 404.8C155.373 404.208 155.109 403.68 154.757 403.216C154.405 402.736 153.973 402.352 153.461 402.064C152.949 401.76 152.357 401.608 151.685 401.608C150.981 401.608 150.373 401.752 149.861 402.04C149.365 402.312 148.949 402.672 148.613 403.12C148.293 403.568 148.053 404.08 147.893 404.656C147.733 405.232 147.653 405.808 147.653 406.384C147.653 406.976 147.741 407.568 147.917 408.16C148.109 408.736 148.381 409.264 148.733 409.744C149.085 410.208 149.517 410.592 150.029 410.896C150.541 411.184 151.125 411.328 151.781 411.328ZM166.086 402.088H163.038V405.808C163.038 406.48 163.038 407.048 163.038 407.512C163.038 407.96 163.038 408.344 163.038 408.664C163.054 408.968 163.07 409.232 163.086 409.456C163.102 409.68 163.118 409.904 163.134 410.128C163.166 410.368 163.198 410.6 163.23 410.824C163.278 411.032 163.366 411.192 163.494 411.304C163.574 411.368 163.686 411.416 163.83 411.448C163.99 411.48 164.15 411.504 164.31 411.52C164.486 411.536 164.654 411.552 164.814 411.568C164.974 411.568 165.102 411.568 165.198 411.568L165.318 411.688L165.366 412L165.318 412.096C165.206 412.096 165.022 412.088 164.766 412.072C164.526 412.056 164.27 412.04 163.998 412.024C163.726 412.024 163.462 412.016 163.206 412C162.966 412 162.79 412 162.678 412H162.102C161.99 412 161.814 412 161.574 412C161.35 412.016 161.11 412.024 160.854 412.024C160.598 412.04 160.35 412.056 160.11 412.072C159.886 412.088 159.718 412.096 159.606 412.096L159.582 412L159.606 411.664L159.702 411.568C159.958 411.568 160.206 411.56 160.446 411.544C160.702 411.512 160.894 411.432 161.022 411.304C161.118 411.208 161.198 411.088 161.262 410.944C161.326 410.784 161.366 410.528 161.382 410.176C161.414 409.824 161.43 409.352 161.43 408.76C161.446 408.168 161.454 407.376 161.454 406.384V402.088H159.678L159.582 401.968V401.536L159.678 401.44L161.454 401.08V399.712C161.454 398 161.774 396.64 162.414 395.632C163.054 394.624 163.99 394.12 165.222 394.12C165.59 394.12 165.99 394.176 166.422 394.288C166.854 394.4 167.302 394.584 167.766 394.84L167.886 395.08L167.598 396.928H166.974C166.91 396.416 166.67 396.016 166.254 395.728C165.854 395.44 165.398 395.296 164.886 395.296C164.422 395.296 164.062 395.392 163.806 395.584C163.566 395.76 163.382 396 163.254 396.304C163.142 396.608 163.078 396.96 163.062 397.36C163.046 397.744 163.038 398.136 163.038 398.536V401.08L166.086 400.936L166.206 401.032V401.968L166.086 402.088ZM176.507 410.08C176.507 410.4 176.539 410.728 176.603 411.064C176.683 411.4 176.755 411.656 176.819 411.832L176.651 412H175.547C175.435 412 175.259 412 175.019 412C174.795 412.016 174.555 412.024 174.299 412.024C174.059 412.04 173.819 412.056 173.579 412.072C173.355 412.088 173.187 412.096 173.075 412.096L173.051 412L173.075 411.664L173.171 411.568C173.427 411.568 173.675 411.56 173.915 411.544C174.171 411.512 174.363 411.432 174.491 411.304C174.619 411.192 174.699 411.048 174.731 410.872C174.779 410.696 174.819 410.448 174.851 410.128L174.875 409.912C174.875 409.768 174.875 409.608 174.875 409.432C174.891 409.24 174.899 409.016 174.899 408.76C174.915 408.488 174.923 408.168 174.923 407.8C174.923 407.416 174.923 406.944 174.923 406.384V400.624C174.923 399.968 174.923 399.416 174.923 398.968C174.923 398.504 174.915 398.104 174.899 397.768C174.899 397.432 174.891 397.144 174.875 396.904C174.875 396.648 174.867 396.384 174.851 396.112C174.835 395.936 174.787 395.784 174.707 395.656C174.643 395.528 174.587 395.432 174.539 395.368C174.379 395.192 174.179 395.08 173.939 395.032C173.699 394.984 173.451 394.96 173.195 394.96L173.099 394.864V394.552L173.195 394.456H173.627C173.899 394.456 174.243 394.456 174.659 394.456C175.075 394.44 175.435 394.408 175.739 394.36L176.579 394.24L176.723 394.456C176.691 394.52 176.659 394.64 176.627 394.816C176.611 394.976 176.595 395.152 176.579 395.344C176.563 395.536 176.547 395.72 176.531 395.896C176.531 396.072 176.531 396.208 176.531 396.304C176.531 396.56 176.531 396.8 176.531 397.024C176.531 397.248 176.523 397.512 176.507 397.816C176.507 398.12 176.507 398.488 176.507 398.92C176.507 399.352 176.507 399.904 176.507 400.576C176.507 401.264 176.499 401.768 176.483 402.088C176.467 402.392 176.451 402.64 176.435 402.832L176.507 402.88C176.971 402.208 177.539 401.664 178.211 401.248C178.883 400.816 179.643 400.6 180.491 400.6C181.403 400.6 182.187 400.76 182.843 401.08C183.515 401.4 184.067 401.824 184.499 402.352C184.931 402.88 185.251 403.488 185.459 404.176C185.667 404.848 185.771 405.552 185.771 406.288C185.771 407.376 185.603 408.304 185.267 409.072C184.931 409.824 184.499 410.44 183.971 410.92C183.459 411.384 182.891 411.728 182.267 411.952C181.659 412.16 181.075 412.264 180.515 412.264C179.747 412.264 179.019 412.096 178.331 411.76C177.659 411.424 177.075 410.848 176.579 410.032L176.507 410.08ZM183.947 406.336C183.947 405.792 183.875 405.256 183.731 404.728C183.587 404.2 183.363 403.736 183.059 403.336C182.771 402.92 182.403 402.592 181.955 402.352C181.507 402.096 180.979 401.968 180.371 401.968C179.747 401.968 179.195 402.088 178.715 402.328C178.235 402.568 177.827 402.856 177.491 403.192C177.171 403.528 176.923 403.88 176.747 404.248C176.587 404.6 176.507 404.904 176.507 405.16V407.776C176.555 408.032 176.667 408.344 176.843 408.712C177.019 409.064 177.259 409.408 177.563 409.744C177.883 410.08 178.267 410.368 178.715 410.608C179.163 410.832 179.699 410.944 180.323 410.944C180.947 410.944 181.483 410.816 181.931 410.56C182.395 410.288 182.771 409.936 183.059 409.504C183.363 409.072 183.587 408.584 183.731 408.04C183.875 407.48 183.947 406.912 183.947 406.336ZM198.411 405.544L198.027 405.712C197.163 405.712 196.275 405.72 195.363 405.736C194.451 405.752 193.555 405.76 192.675 405.76H189.843C189.827 405.872 189.819 405.984 189.819 406.096C189.819 406.192 189.819 406.288 189.819 406.384C189.819 406.992 189.907 407.576 190.083 408.136C190.259 408.68 190.531 409.16 190.899 409.576C191.283 409.992 191.771 410.328 192.363 410.584C192.955 410.824 193.675 410.944 194.523 410.944C195.019 410.944 195.547 410.896 196.107 410.8C196.683 410.688 197.211 410.496 197.691 410.224L197.931 410.368V410.8L197.691 411.064C197.307 411.368 196.763 411.648 196.059 411.904C195.355 412.144 194.571 412.264 193.707 412.264C192.859 412.264 192.083 412.128 191.379 411.856C190.691 411.568 190.091 411.168 189.579 410.656C189.083 410.144 188.691 409.536 188.403 408.832C188.131 408.128 187.995 407.344 187.995 406.48C187.995 405.6 188.139 404.8 188.427 404.08C188.715 403.36 189.107 402.744 189.603 402.232C190.115 401.72 190.707 401.32 191.379 401.032C192.067 400.744 192.803 400.6 193.587 400.6C194.003 400.6 194.467 400.656 194.979 400.768C195.507 400.88 196.011 401.096 196.491 401.416C196.971 401.72 197.403 402.16 197.787 402.736C198.171 403.296 198.435 404.04 198.579 404.968L198.411 405.544ZM193.611 401.68C193.099 401.68 192.635 401.768 192.219 401.944C191.819 402.104 191.459 402.328 191.139 402.616C190.835 402.888 190.579 403.216 190.371 403.6C190.179 403.968 190.043 404.36 189.963 404.776H190.899C191.763 404.776 192.603 404.768 193.419 404.752C194.235 404.72 195.091 404.68 195.987 404.632C196.195 404.616 196.331 404.56 196.395 404.464C196.475 404.368 196.515 404.256 196.515 404.128C196.515 404.032 196.507 403.944 196.491 403.864C196.475 403.784 196.451 403.704 196.419 403.624C196.243 403.016 195.915 402.544 195.435 402.208C194.955 401.856 194.347 401.68 193.611 401.68ZM203.748 403.504C203.908 403.2 204.084 402.88 204.276 402.544C204.484 402.208 204.716 401.896 204.972 401.608C205.228 401.32 205.516 401.08 205.836 400.888C206.172 400.696 206.548 400.6 206.964 400.6C207.252 400.6 207.572 400.648 207.924 400.744C208.292 400.824 208.54 400.936 208.668 401.08L208.86 401.296L208.572 403.144H207.78C207.732 402.92 207.604 402.72 207.396 402.544C207.204 402.352 206.9 402.256 206.484 402.256C206.084 402.256 205.716 402.376 205.38 402.616C205.044 402.84 204.748 403.128 204.492 403.48C204.252 403.832 204.06 404.208 203.916 404.608C203.788 404.992 203.724 405.344 203.724 405.664V407.8C203.724 408.152 203.724 408.44 203.724 408.664C203.74 408.872 203.748 409.056 203.748 409.216C203.764 409.36 203.772 409.488 203.772 409.6C203.788 409.696 203.796 409.8 203.796 409.912L203.82 410.128C203.852 410.368 203.884 410.6 203.916 410.824C203.964 411.032 204.052 411.192 204.18 411.304C204.26 411.368 204.372 411.416 204.516 411.448C204.676 411.48 204.836 411.504 204.996 411.52C205.172 411.536 205.34 411.552 205.5 411.568C205.66 411.568 205.788 411.568 205.884 411.568L206.004 411.688L206.052 412L206.004 412.096C205.892 412.096 205.708 412.088 205.452 412.072C205.212 412.056 204.956 412.04 204.684 412.024C204.412 412.024 204.148 412.016 203.892 412C203.652 412 203.476 412 203.364 412H202.788C202.676 412 202.5 412 202.26 412C202.036 412.016 201.796 412.024 201.54 412.024C201.284 412.04 201.036 412.056 200.796 412.072C200.572 412.088 200.404 412.096 200.292 412.096L200.268 412L200.292 411.664L200.388 411.568C200.644 411.568 200.892 411.56 201.132 411.544C201.388 411.512 201.58 411.432 201.708 411.304C201.836 411.192 201.916 411.048 201.948 410.872C201.996 410.696 202.036 410.448 202.068 410.128L202.092 409.912C202.108 409.752 202.116 409.552 202.116 409.312C202.132 409.072 202.14 408.664 202.14 408.088V405.136C202.14 404.8 202.14 404.52 202.14 404.296C202.14 404.056 202.132 403.848 202.116 403.672C202.116 403.496 202.108 403.336 202.092 403.192C202.092 403.048 202.084 402.896 202.068 402.736C202.036 402.56 201.988 402.408 201.924 402.28C201.86 402.136 201.804 402.04 201.756 401.992C201.596 401.8 201.396 401.688 201.156 401.656C200.916 401.608 200.668 401.584 200.412 401.584L200.316 401.488V401.152L200.412 401.08H200.844C201.116 401.08 201.46 401.08 201.876 401.08C202.292 401.064 202.652 401.032 202.956 400.984L203.796 400.864L203.94 401.08C203.844 401.416 203.772 401.8 203.724 402.232C203.692 402.664 203.676 403.08 203.676 403.48L203.748 403.504ZM209.827 394.552L209.923 394.456H210.355C210.627 394.456 210.971 394.456 211.387 394.456C211.803 394.44 212.163 394.408 212.467 394.36L213.331 394.24L213.475 394.456C213.443 394.52 213.419 394.64 213.403 394.816C213.387 394.976 213.371 395.152 213.355 395.344C213.339 395.536 213.323 395.72 213.307 395.896C213.307 396.072 213.307 396.208 213.307 396.304C213.291 396.56 213.275 396.8 213.259 397.024C213.259 397.248 213.251 397.512 213.235 397.816C213.235 398.12 213.235 398.488 213.235 398.92C213.235 399.352 213.235 399.904 213.235 400.576V405.808C213.235 406.48 213.235 407.032 213.235 407.464C213.251 407.896 213.259 408.264 213.259 408.568C213.275 408.872 213.283 409.136 213.283 409.36C213.299 409.584 213.315 409.84 213.331 410.128C213.363 410.464 213.395 410.72 213.427 410.896C213.475 411.056 213.563 411.192 213.691 411.304C213.819 411.416 213.995 411.488 214.219 411.52C214.459 411.552 214.699 411.568 214.939 411.568L215.059 411.688L215.107 412L215.059 412.096C214.947 412.096 214.779 412.088 214.555 412.072C214.331 412.056 214.091 412.04 213.835 412.024C213.579 412.024 213.339 412.016 213.115 412C212.891 412 212.723 412 212.611 412H212.275C212.163 412 211.987 412 211.747 412C211.523 412.016 211.283 412.024 211.027 412.024C210.787 412.04 210.547 412.056 210.307 412.072C210.083 412.088 209.915 412.096 209.803 412.096L209.779 412L209.803 411.664L209.899 411.568C210.155 411.568 210.403 411.56 210.643 411.544C210.899 411.512 211.091 411.432 211.219 411.304C211.347 411.192 211.427 411.048 211.459 410.872C211.507 410.696 211.547 410.448 211.579 410.128C211.595 409.92 211.603 409.712 211.603 409.504C211.619 409.296 211.627 409.056 211.627 408.784C211.643 408.496 211.651 408.168 211.651 407.8C211.651 407.416 211.651 406.944 211.651 406.384V400.624C211.651 399.968 211.651 399.416 211.651 398.968C211.651 398.504 211.643 398.104 211.627 397.768C211.627 397.432 211.619 397.136 211.603 396.88C211.603 396.624 211.595 396.368 211.579 396.112C211.563 395.936 211.515 395.784 211.435 395.656C211.371 395.528 211.315 395.432 211.267 395.368C211.107 395.192 210.907 395.08 210.667 395.032C210.427 394.984 210.179 394.96 209.923 394.96L209.827 394.864V394.552ZM221.72 412.096C221.608 412.096 221.44 412.088 221.216 412.072C220.992 412.056 220.752 412.04 220.496 412.024C220.24 412.024 220 412.016 219.776 412C219.552 412 219.384 412 219.272 412H218.936C218.824 412 218.648 412 218.408 412C218.184 412.016 217.944 412.024 217.688 412.024C217.448 412.04 217.208 412.056 216.968 412.072C216.744 412.088 216.576 412.096 216.464 412.096L216.44 412L216.464 411.664L216.56 411.568C216.816 411.568 217.064 411.56 217.304 411.544C217.56 411.512 217.752 411.432 217.88 411.304C218.008 411.192 218.088 411.048 218.12 410.872C218.168 410.696 218.208 410.448 218.24 410.128C218.256 409.872 218.272 409.616 218.288 409.36C218.304 409.088 218.312 408.664 218.312 408.088V405.136C218.312 404.8 218.312 404.52 218.312 404.296C218.312 404.056 218.304 403.848 218.288 403.672C218.288 403.496 218.28 403.336 218.264 403.192C218.264 403.048 218.256 402.896 218.24 402.736C218.208 402.56 218.16 402.408 218.096 402.28C218.032 402.136 217.976 402.04 217.928 401.992C217.768 401.8 217.568 401.688 217.328 401.656C217.088 401.608 216.84 401.584 216.584 401.584L216.488 401.488V401.152L216.584 401.08H217.016C217.288 401.08 217.632 401.08 218.048 401.08C218.464 401.064 218.824 401.032 219.128 400.984L219.968 400.864L220.112 401.08C220.08 401.144 220.048 401.256 220.016 401.416C220 401.576 219.984 401.752 219.968 401.944C219.968 402.12 219.96 402.296 219.944 402.472C219.944 402.648 219.944 402.784 219.944 402.88C219.944 403.008 219.936 403.136 219.92 403.264C219.92 403.376 219.92 403.512 219.92 403.672C219.92 403.832 219.912 404.024 219.896 404.248C219.896 404.472 219.896 404.76 219.896 405.112V407.8C219.896 408.152 219.896 408.44 219.896 408.664C219.912 408.888 219.92 409.08 219.92 409.24C219.936 409.4 219.944 409.552 219.944 409.696C219.96 409.824 219.976 409.968 219.992 410.128C220.024 410.464 220.056 410.72 220.088 410.896C220.136 411.056 220.224 411.192 220.352 411.304C220.48 411.416 220.656 411.488 220.88 411.52C221.12 411.552 221.36 411.568 221.6 411.568L221.72 411.688L221.768 412L221.72 412.096ZM217.688 396.856C217.688 396.536 217.792 396.264 218 396.04C218.224 395.8 218.496 395.68 218.816 395.68C219.136 395.68 219.408 395.8 219.632 396.04C219.872 396.264 219.992 396.536 219.992 396.856C219.992 397.176 219.872 397.448 219.632 397.672C219.408 397.88 219.136 397.984 218.816 397.984C218.496 397.984 218.224 397.88 218 397.672C217.792 397.448 217.688 397.176 217.688 396.856ZM226.577 403.024C226.993 402.336 227.529 401.76 228.185 401.296C228.841 400.832 229.657 400.6 230.633 400.6C231.081 400.6 231.529 400.664 231.977 400.792C232.425 400.92 232.833 401.12 233.201 401.392C233.585 401.664 233.897 402.016 234.137 402.448C234.393 402.864 234.561 403.36 234.641 403.936C234.689 404.352 234.713 404.792 234.713 405.256C234.729 405.72 234.737 406.184 234.737 406.648C234.737 407.224 234.737 407.808 234.737 408.4C234.753 408.976 234.761 409.552 234.761 410.128C234.793 410.496 234.833 410.768 234.881 410.944C234.929 411.104 235.001 411.224 235.097 411.304C235.241 411.432 235.433 411.512 235.673 411.544C235.929 411.56 236.185 411.568 236.441 411.568L236.513 411.664L236.561 412L236.513 412.096C236.241 412.064 235.937 412.04 235.601 412.024C235.265 412.008 234.937 412 234.617 412C234.009 412 233.457 412.024 232.961 412.072L232.793 411.832C232.857 411.624 232.905 411.352 232.937 411.016C232.969 410.68 232.993 410.384 233.009 410.128C233.041 409.456 233.065 408.8 233.081 408.16C233.097 407.504 233.105 406.96 233.105 406.528C233.105 406.16 233.089 405.76 233.057 405.328C233.041 404.896 232.993 404.52 232.913 404.2C232.753 403.448 232.425 402.888 231.929 402.52C231.433 402.152 230.857 401.968 230.201 401.968C229.673 401.968 229.177 402.08 228.713 402.304C228.265 402.528 227.881 402.808 227.561 403.144C227.241 403.464 226.985 403.808 226.793 404.176C226.617 404.528 226.529 404.832 226.529 405.088V407.8C226.529 408.152 226.529 408.44 226.529 408.664C226.529 408.888 226.529 409.08 226.529 409.24C226.545 409.4 226.561 409.552 226.577 409.696C226.593 409.824 226.609 409.968 226.625 410.128C226.657 410.464 226.689 410.72 226.721 410.896C226.769 411.056 226.857 411.192 226.985 411.304C227.113 411.416 227.289 411.488 227.513 411.52C227.753 411.552 227.993 411.568 228.233 411.568L228.353 411.688L228.401 412L228.353 412.096C228.241 412.096 228.073 412.088 227.849 412.072C227.625 412.056 227.385 412.04 227.129 412.024C226.873 412.024 226.633 412.016 226.409 412C226.185 412 226.017 412 225.905 412H225.569C225.457 412 225.281 412 225.041 412C224.817 412.016 224.577 412.024 224.321 412.024C224.081 412.04 223.841 412.056 223.601 412.072C223.377 412.088 223.209 412.096 223.097 412.096L223.073 412L223.097 411.664L223.193 411.568C223.449 411.568 223.697 411.56 223.937 411.544C224.193 411.512 224.385 411.432 224.513 411.304C224.641 411.192 224.721 411.048 224.753 410.872C224.801 410.696 224.841 410.448 224.873 410.128C224.889 409.872 224.905 409.616 224.921 409.36C224.937 409.088 224.945 408.664 224.945 408.088V405.136C224.945 404.8 224.945 404.52 224.945 404.296C224.945 404.056 224.937 403.848 224.921 403.672C224.921 403.496 224.913 403.336 224.897 403.192C224.897 403.048 224.889 402.896 224.873 402.736C224.841 402.56 224.793 402.408 224.729 402.28C224.665 402.136 224.609 402.04 224.561 401.992C224.401 401.8 224.201 401.688 223.961 401.656C223.721 401.608 223.473 401.584 223.217 401.584L223.121 401.488V401.152L223.217 401.08H223.649C223.921 401.08 224.265 401.08 224.681 401.08C225.097 401.064 225.457 401.032 225.761 400.984L226.601 400.864L226.745 401.08C226.665 401.288 226.609 401.576 226.577 401.944C226.545 402.296 226.521 402.64 226.505 402.976L226.577 403.024Z" fill="black"/>
<circle cx="465.5" cy="237.5" r="114.5" fill="#D7FF48"/>
<path d="M18.9 358V115H67.8C84 115 97.4 117.2 108 121.6C118.6 125.8 126.4 132.7 131.4 142.3C136.6 151.7 139.2 164.1 139.2 179.5C139.2 188.9 138.2 197.5 136.2 205.3C134.2 212.9 131 219.4 126.6 224.8C122.2 230 116.4 233.8 109.2 236.2L143.7 358H111L79.2 244H52.8V358H18.9ZM52.8 219.7H65.7C75.3 219.7 83.1 218.5 89.1 216.1C95.1 213.7 99.5 209.6 102.3 203.8C105.1 198 106.5 189.9 106.5 179.5C106.5 165.3 103.9 155.1 98.7 148.9C93.5 142.5 83.2 139.3 67.8 139.3H52.8V219.7ZM174.466 358V115H268.666V140.2H208.366V220.6H257.266V244.6H208.366V333.7H269.266V358H174.466ZM357.534 360.7C340.334 360.7 326.934 357.1 317.334 349.9C307.934 342.7 301.334 333 297.534 320.8C293.934 308.6 292.134 295 292.134 280V194.2C292.134 177.8 293.934 163.5 297.534 151.3C301.334 139.1 307.934 129.7 317.334 123.1C326.934 116.3 340.334 112.9 357.534 112.9C372.734 112.9 384.734 115.7 393.534 121.3C402.534 126.9 408.934 134.9 412.734 145.3C416.734 155.7 418.734 168.2 418.734 182.8V202H386.634V184.9C386.634 175.9 386.134 168 385.134 161.2C384.334 154.2 381.934 148.8 377.934 145C373.934 141.2 367.234 139.3 357.834 139.3C348.234 139.3 341.234 141.4 336.834 145.6C332.434 149.6 329.534 155.4 328.134 163C326.934 170.4 326.334 179.1 326.334 189.1V285.4C326.334 297.6 327.334 307.3 329.334 314.5C331.334 321.5 334.634 326.5 339.234 329.5C343.834 332.5 350.034 334 357.834 334C367.034 334 373.634 332 377.634 328C381.634 323.8 384.134 318.1 385.134 310.9C386.134 303.7 386.634 295.3 386.634 285.7V267.7H418.734V285.7C418.734 300.5 416.934 313.6 413.334 325C409.734 336.2 403.534 345 394.734 351.4C385.934 357.6 373.534 360.7 357.534 360.7Z" fill="black"/>
</svg>
